<?xml version="1.0" encoding="UTF-8" standalone="no"?>
<!DOCTYPE svg PUBLIC "-//W3C//DTD SVG 1.1//EN"
 "http://www.w3.org/Graphics/SVG/1.1/DTD/svg11.dtd">
<!-- Generated by graphviz version 2.38.0 (20140413.2041)
 -->
<!-- Title: d1e671 Pages: 1 -->
<svg width="3347pt" height="859pt"
 viewBox="0.00 0.00 3347.00 858.75" xmlns="http://www.w3.org/2000/svg" xmlns:xlink="http://www.w3.org/1999/xlink">
<g id="graph0" class="graph" transform="scale(1 1) rotate(0) translate(4 854.749)">
<title>d1e671</title>
<polygon fill="white" stroke="none" points="-4,4 -4,-854.749 3343,-854.749 3343,4 -4,4"/>
<text text-anchor="middle" x="1669.5" y="-7.8" font-family="Times,serif" font-size="14.00">Powered by http://rhizomik.net</text>
<!-- https://www.meetup.com/members/273645503/user -->
<g id="node1" class="node"><title>https://www.meetup.com/members/273645503/user</title>
<g id="a_node1"><a xlink:href="https://www.meetup.com/members/273645503/user" xlink:title="sioc:UserAccount:\nhttps://www.meetup.com/members/273645503/user">
<polygon fill="none" stroke="black" points="354,-394.749 2.84217e-14,-394.749 2.84217e-14,-364.749 354,-364.749 354,-394.749"/>
<text text-anchor="middle" x="177" y="-382.749" font-family="Times,serif" font-size="10.00" fill="blue">sioc:UserAccount:</text>
<text text-anchor="middle" x="177" y="-371.749" font-family="Times,serif" font-size="10.00" fill="blue">https://www.meetup.com/members/273645503/user</text>
</a>
</g>
</g>
<!-- https://www.meetup.com/members/273645503/ -->
<g id="node2" class="node"><title>https://www.meetup.com/members/273645503/</title>
<g id="a_node2"><a xlink:href="https://www.meetup.com/members/273645503/" xlink:title="uomoprofile:User_Profile:\nhttps://www.meetup.com/members/273645503/">
<polygon fill="none" stroke="black" points="866,-394.749 542,-394.749 542,-364.749 866,-364.749 866,-394.749"/>
<text text-anchor="middle" x="704" y="-382.749" font-family="Times,serif" font-size="10.00" fill="blue">uomoprofile:User_Profile:</text>
<text text-anchor="middle" x="704" y="-371.749" font-family="Times,serif" font-size="10.00" fill="blue">https://www.meetup.com/members/273645503/</text>
</a>
</g>
</g>
<!-- https://www.meetup.com/members/273645503/user&#45;&gt;https://www.meetup.com/members/273645503/ -->
<g id="edge1" class="edge"><title>https://www.meetup.com/members/273645503/user&#45;&gt;https://www.meetup.com/members/273645503/</title>
<path fill="none" stroke="blue" d="M354.278,-379.749C411.464,-379.749 474.792,-379.749 531.617,-379.749"/>
<polygon fill="blue" stroke="blue" points="531.779,-383.249 541.779,-379.749 531.779,-376.249 531.779,-383.249"/>
<text text-anchor="middle" x="448" y="-382.749" font-family="Times,serif" font-size="10.00">uomoprofile:creates</text>
</g>
<!-- https://www.meetup.com/members/273645503/&#45;&gt;https://www.meetup.com/members/273645503/user -->
<g id="edge6" class="edge"><title>https://www.meetup.com/members/273645503/&#45;&gt;https://www.meetup.com/members/273645503/user</title>
<path fill="none" stroke="blue" d="M549.261,-364.736C543.097,-364.36 536.992,-364.027 531,-363.749 457.302,-360.329 438.711,-360.602 365,-363.749 361.745,-363.888 358.458,-364.041 355.148,-364.206"/>
<polygon fill="blue" stroke="blue" points="354.955,-360.711 345.154,-364.736 355.326,-367.701 354.955,-360.711"/>
<text text-anchor="middle" x="448" y="-366.749" font-family="Times,serif" font-size="10.00">uomoprofile:created_by</text>
</g>
<!-- https://www.meetup.com/members/273645503/ActualPlace -->
<g id="node3" class="node"><title>https://www.meetup.com/members/273645503/ActualPlace</title>
<g id="a_node3"><a xlink:href="https://www.meetup.com/members/273645503/ActualPlace" xlink:title="uomoprofile:Actual_Place:\nhttps://www.meetup.com/members/273645503/ActualPlace">
<polygon fill="none" stroke="black" points="1663,-831.749 1256,-831.749 1256,-801.749 1663,-801.749 1663,-831.749"/>
<text text-anchor="middle" x="1459.5" y="-819.749" font-family="Times,serif" font-size="10.00" fill="blue">uomoprofile:Actual_Place:</text>
<text text-anchor="middle" x="1459.5" y="-808.749" font-family="Times,serif" font-size="10.00" fill="blue">https://www.meetup.com/members/273645503/ActualPlace</text>
</a>
</g>
</g>
<!-- https://www.meetup.com/members/273645503/&#45;&gt;https://www.meetup.com/members/273645503/ActualPlace -->
<g id="edge10" class="edge"><title>https://www.meetup.com/members/273645503/&#45;&gt;https://www.meetup.com/members/273645503/ActualPlace</title>
<path fill="none" stroke="blue" d="M706.651,-394.984C713.886,-453.543 748.422,-665.481 877,-757.749 1022.94,-862.478 1245.1,-850.58 1368.29,-833.271"/>
<polygon fill="blue" stroke="blue" points="1369.04,-836.698 1378.44,-831.8 1368.04,-829.77 1369.04,-836.698"/>
<text text-anchor="middle" x="1001" y="-842.749" font-family="Times,serif" font-size="10.00">uomoprofile:has_biographical_info</text>
</g>
<!-- https://www.meetup.com/members/273645503/Tumblr -->
<g id="node5" class="node"><title>https://www.meetup.com/members/273645503/Tumblr</title>
<g id="a_node5"><a xlink:href="https://www.meetup.com/members/273645503/Tumblr" xlink:title="uomoprofile:Link_to_other_Social_Media:\nhttps://www.meetup.com/members/273645503/Tumblr">
<polygon fill="none" stroke="black" points="1644,-659.749 1275,-659.749 1275,-629.749 1644,-629.749 1644,-659.749"/>
<text text-anchor="middle" x="1459.5" y="-647.749" font-family="Times,serif" font-size="10.00" fill="blue">uomoprofile:Link_to_other_Social_Media:</text>
<text text-anchor="middle" x="1459.5" y="-636.749" font-family="Times,serif" font-size="10.00" fill="blue">https://www.meetup.com/members/273645503/Tumblr</text>
</a>
</g>
</g>
<!-- https://www.meetup.com/members/273645503/&#45;&gt;https://www.meetup.com/members/273645503/Tumblr -->
<g id="edge3" class="edge"><title>https://www.meetup.com/members/273645503/&#45;&gt;https://www.meetup.com/members/273645503/Tumblr</title>
<path fill="none" stroke="blue" d="M711.5,-395.026C730.127,-436.643 788.13,-552.091 877,-599.749 942.14,-634.682 1122.11,-644.406 1264.75,-646.313"/>
<polygon fill="blue" stroke="blue" points="1264.91,-649.815 1274.95,-646.437 1264.99,-642.816 1264.91,-649.815"/>
<text text-anchor="middle" x="1001" y="-644.749" font-family="Times,serif" font-size="10.00">uomoprofile:has_contact_info</text>
</g>
<!-- https://www.meetup.com/members/273645503/FullName -->
<g id="node6" class="node"><title>https://www.meetup.com/members/273645503/FullName</title>
<g id="a_node6"><a xlink:href="https://www.meetup.com/members/273645503/FullName" xlink:title="uomoprofile:Biographical_Info:\nhttps://www.meetup.com/members/273645503/FullName">
<polygon fill="none" stroke="black" points="1651.5,-446.749 1267.5,-446.749 1267.5,-416.749 1651.5,-416.749 1651.5,-446.749"/>
<text text-anchor="middle" x="1459.5" y="-434.749" font-family="Times,serif" font-size="10.00" fill="blue">uomoprofile:Biographical_Info:</text>
<text text-anchor="middle" x="1459.5" y="-423.749" font-family="Times,serif" font-size="10.00" fill="blue">https://www.meetup.com/members/273645503/FullName</text>
</a>
</g>
</g>
<!-- https://www.meetup.com/members/273645503/&#45;&gt;https://www.meetup.com/members/273645503/FullName -->
<g id="edge4" class="edge"><title>https://www.meetup.com/members/273645503/&#45;&gt;https://www.meetup.com/members/273645503/FullName</title>
<path fill="none" stroke="blue" d="M864.749,-394.779C868.874,-395.113 872.963,-395.437 877,-395.749 1003.28,-405.529 1145.15,-414.355 1257.15,-420.82"/>
<polygon fill="blue" stroke="blue" points="1257.02,-424.319 1267.21,-421.399 1257.42,-417.33 1257.02,-424.319"/>
<text text-anchor="middle" x="1001" y="-415.749" font-family="Times,serif" font-size="10.00">uomoprofile:has_biographical_info</text>
</g>
<!-- https://www.meetup.com/members/273645503/InscriptionDate -->
<g id="node7" class="node"><title>https://www.meetup.com/members/273645503/InscriptionDate</title>
<g id="a_node7"><a xlink:href="https://www.meetup.com/members/273645503/InscriptionDate" xlink:title="uomoprofile:Inscription_Date:\nhttps://www.meetup.com/members/273645503/InscriptionDate">
<polygon fill="none" stroke="black" points="1678,-394.749 1241,-394.749 1241,-364.749 1678,-364.749 1678,-394.749"/>
<text text-anchor="middle" x="1459.5" y="-382.749" font-family="Times,serif" font-size="10.00" fill="blue">uomoprofile:Inscription_Date:</text>
<text text-anchor="middle" x="1459.5" y="-371.749" font-family="Times,serif" font-size="10.00" fill="blue">https://www.meetup.com/members/273645503/InscriptionDate</text>
</a>
</g>
</g>
<!-- https://www.meetup.com/members/273645503/&#45;&gt;https://www.meetup.com/members/273645503/InscriptionDate -->
<g id="edge5" class="edge"><title>https://www.meetup.com/members/273645503/&#45;&gt;https://www.meetup.com/members/273645503/InscriptionDate</title>
<path fill="none" stroke="blue" d="M866.182,-379.749C972.357,-379.749 1112.96,-379.749 1230.53,-379.749"/>
<polygon fill="blue" stroke="blue" points="1230.75,-383.249 1240.75,-379.749 1230.75,-376.249 1230.75,-383.249"/>
<text text-anchor="middle" x="1001" y="-382.749" font-family="Times,serif" font-size="10.00">uomoprofile:has_inscription_date</text>
</g>
<!-- &quot;https://www.meetup.com/members/273645503/&quot; -->
<g id="node8" class="node"><title>&quot;https://www.meetup.com/members/273645503/&quot;</title>
<text text-anchor="middle" x="1459.5" y="-322.249" font-family="Times,serif" font-size="10.00">&quot;https://www.meetup.com/members/273645503/&quot;^^http://www.w3.org/2001/XMLSchema#anyURI</text>
</g>
<!-- https://www.meetup.com/members/273645503/&#45;&gt;&quot;https://www.meetup.com/members/273645503/&quot; -->
<g id="edge7" class="edge"><title>https://www.meetup.com/members/273645503/&#45;&gt;&quot;https://www.meetup.com/members/273645503/&quot;</title>
<path fill="none" stroke="blue" d="M864.752,-364.748C868.876,-364.406 872.964,-364.072 877,-363.749 968.139,-356.455 1067.39,-349.451 1157.67,-343.442"/>
<polygon fill="blue" stroke="blue" points="1158.04,-346.925 1167.78,-342.77 1157.57,-339.94 1158.04,-346.925"/>
<text text-anchor="middle" x="1001" y="-366.749" font-family="Times,serif" font-size="10.00">uomoprofile:uri</text>
</g>
<!-- https://www.meetup.com/members/273645503/Facebook -->
<g id="node9" class="node"><title>https://www.meetup.com/members/273645503/Facebook</title>
<g id="a_node9"><a xlink:href="https://www.meetup.com/members/273645503/Facebook" xlink:title="uomoprofile:Link_to_other_Social_Media:\nhttps://www.meetup.com/members/273645503/Facebook">
<polygon fill="none" stroke="black" points="1651.5,-761.749 1267.5,-761.749 1267.5,-731.749 1651.5,-731.749 1651.5,-761.749"/>
<text text-anchor="middle" x="1459.5" y="-749.749" font-family="Times,serif" font-size="10.00" fill="blue">uomoprofile:Link_to_other_Social_Media:</text>
<text text-anchor="middle" x="1459.5" y="-738.749" font-family="Times,serif" font-size="10.00" fill="blue">https://www.meetup.com/members/273645503/Facebook</text>
</a>
</g>
</g>
<!-- https://www.meetup.com/members/273645503/&#45;&gt;https://www.meetup.com/members/273645503/Facebook -->
<g id="edge8" class="edge"><title>https://www.meetup.com/members/273645503/&#45;&gt;https://www.meetup.com/members/273645503/Facebook</title>
<path fill="none" stroke="blue" d="M709.394,-395C724.055,-442.895 776.168,-591.065 877,-657.749 988.443,-731.451 1137.84,-753.068 1257.3,-756.586"/>
<polygon fill="blue" stroke="blue" points="1257.22,-760.085 1267.3,-756.841 1257.4,-753.088 1257.22,-760.085"/>
<text text-anchor="middle" x="1001" y="-746.749" font-family="Times,serif" font-size="10.00">uomoprofile:has_contact_info</text>
</g>
<!-- https://www.meetup.com/members/273645503/Linkedin -->
<g id="node10" class="node"><title>https://www.meetup.com/members/273645503/Linkedin</title>
<g id="a_node10"><a xlink:href="https://www.meetup.com/members/273645503/Linkedin" xlink:title="uomoprofile:Link_to_other_Social_Media:\nhttps://www.meetup.com/members/273645503/Linkedin">
<polygon fill="none" stroke="black" points="1651.5,-607.749 1267.5,-607.749 1267.5,-577.749 1651.5,-577.749 1651.5,-607.749"/>
<text text-anchor="middle" x="1459.5" y="-595.749" font-family="Times,serif" font-size="10.00" fill="blue">uomoprofile:Link_to_other_Social_Media:</text>
<text text-anchor="middle" x="1459.5" y="-584.749" font-family="Times,serif" font-size="10.00" fill="blue">https://www.meetup.com/members/273645503/Linkedin</text>
</a>
</g>
</g>
<!-- https://www.meetup.com/members/273645503/&#45;&gt;https://www.meetup.com/members/273645503/Linkedin -->
<g id="edge9" class="edge"><title>https://www.meetup.com/members/273645503/&#45;&gt;https://www.meetup.com/members/273645503/Linkedin</title>
<path fill="none" stroke="blue" d="M715.082,-394.845C738.698,-428.754 801.363,-510.655 877,-544.749 943.06,-574.527 1116.9,-586.014 1257.42,-590.353"/>
<polygon fill="blue" stroke="blue" points="1257.37,-593.853 1267.47,-590.653 1257.58,-586.856 1257.37,-593.853"/>
<text text-anchor="middle" x="1001" y="-586.749" font-family="Times,serif" font-size="10.00">uomoprofile:has_contact_info</text>
</g>
<!-- &quot;Sono solo un progetto :)&quot; -->
<g id="node11" class="node"><title>&quot;Sono solo un progetto :)&quot;</title>
<text text-anchor="middle" x="1459.5" y="-264.249" font-family="Times,serif" font-size="10.00">&quot;Sono solo un progetto :)&quot;^^http://www.w3.org/2001/XMLSchema#string</text>
</g>
<!-- https://www.meetup.com/members/273645503/&#45;&gt;&quot;Sono solo un progetto :)&quot; -->
<g id="edge11" class="edge"><title>https://www.meetup.com/members/273645503/&#45;&gt;&quot;Sono solo un progetto :)&quot;</title>
<path fill="none" stroke="blue" d="M750.909,-364.73C785.302,-353.954 833.69,-339.796 877,-330.749 978.164,-309.618 1090.78,-295.173 1189.76,-285.439"/>
<polygon fill="blue" stroke="blue" points="1190.29,-288.904 1199.91,-284.452 1189.61,-281.936 1190.29,-288.904"/>
<text text-anchor="middle" x="1001" y="-333.749" font-family="Times,serif" font-size="10.00">uomoprofile:bio</text>
</g>
<!-- http://uomodhdk.github.io/Ontology/uomoprofile.owl#Public -->
<g id="node12" class="node"><title>http://uomodhdk.github.io/Ontology/uomoprofile.owl#Public</title>
<g id="a_node12"><a xlink:href="http://uomodhdk.github.io/Ontology/uomoprofile.owl#Public" xlink:title="http://uomodhdk.github.io/Ontology/uomoprofile.owl#Public">
<polygon fill="none" stroke="black" points="1681.5,-226.249 1237.5,-226.249 1237.5,-207.249 1681.5,-207.249 1681.5,-226.249"/>
<text text-anchor="middle" x="1459.5" y="-214.249" font-family="Times,serif" font-size="10.00" fill="blue">http://uomodhdk.github.io/Ontology/uomoprofile.owl#Public</text>
</a>
</g>
</g>
<!-- https://www.meetup.com/members/273645503/&#45;&gt;http://uomodhdk.github.io/Ontology/uomoprofile.owl#Public -->
<g id="edge12" class="edge"><title>https://www.meetup.com/members/273645503/&#45;&gt;http://uomodhdk.github.io/Ontology/uomoprofile.owl#Public</title>
<path fill="none" stroke="blue" d="M724.644,-364.641C755.34,-341.866 817.359,-299.132 877,-277.749 988.077,-237.925 1118.18,-221.691 1227.12,-215.833"/>
<polygon fill="blue" stroke="blue" points="1227.46,-219.321 1237.26,-215.315 1227.1,-212.33 1227.46,-219.321"/>
<text text-anchor="middle" x="1001" y="-280.749" font-family="Times,serif" font-size="10.00">uomoprofile:has_privacy</text>
</g>
<!-- https://www.meetup.com/members/273645503/Flickr -->
<g id="node13" class="node"><title>https://www.meetup.com/members/273645503/Flickr</title>
<g id="a_node13"><a xlink:href="https://www.meetup.com/members/273645503/Flickr" xlink:title="uomoprofile:Link_to_other_Social_Media:\nhttps://www.meetup.com/members/273645503/Flickr">
<polygon fill="none" stroke="black" points="1644,-498.749 1275,-498.749 1275,-468.749 1644,-468.749 1644,-498.749"/>
<text text-anchor="middle" x="1459.5" y="-486.749" font-family="Times,serif" font-size="10.00" fill="blue">uomoprofile:Link_to_other_Social_Media:</text>
<text text-anchor="middle" x="1459.5" y="-475.749" font-family="Times,serif" font-size="10.00" fill="blue">https://www.meetup.com/members/273645503/Flickr</text>
</a>
</g>
</g>
<!-- https://www.meetup.com/members/273645503/&#45;&gt;https://www.meetup.com/members/273645503/Flickr -->
<g id="edge13" class="edge"><title>https://www.meetup.com/members/273645503/&#45;&gt;https://www.meetup.com/members/273645503/Flickr</title>
<path fill="none" stroke="blue" d="M750.128,-394.831C784.534,-405.784 833.285,-420.137 877,-428.749 1004.85,-453.936 1150.85,-467.695 1264.58,-475.153"/>
<polygon fill="blue" stroke="blue" points="1264.59,-478.661 1274.79,-475.811 1265.04,-471.675 1264.59,-478.661"/>
<text text-anchor="middle" x="1001" y="-466.749" font-family="Times,serif" font-size="10.00">uomoprofile:has_contact_info</text>
</g>
<!-- https://secure.meetupstatic.com/photos/member/a/e/d/1/member_284744753.jpeg -->
<g id="node14" class="node"><title>https://secure.meetupstatic.com/photos/member/a/e/d/1/member_284744753.jpeg</title>
<g id="a_node14"><a xlink:href="https://secure.meetupstatic.com/photos/member/a/e/d/1/member_284744753.jpeg" xlink:title="uomoprofile:Profile_Media:\nhttps://secure.meetupstatic.com/photos/member/a/e/d/1/member_284744753.jpeg">
<polygon fill="none" stroke="black" points="1749,-184.749 1170,-184.749 1170,-154.749 1749,-154.749 1749,-184.749"/>
<text text-anchor="middle" x="1459.5" y="-172.749" font-family="Times,serif" font-size="10.00" fill="blue">uomoprofile:Profile_Media:</text>
<text text-anchor="middle" x="1459.5" y="-161.749" font-family="Times,serif" font-size="10.00" fill="blue">https://secure.meetupstatic.com/photos/member/a/e/d/1/member_284744753.jpeg</text>
</a>
</g>
</g>
<!-- https://www.meetup.com/members/273645503/&#45;&gt;https://secure.meetupstatic.com/photos/member/a/e/d/1/member_284744753.jpeg -->
<g id="edge14" class="edge"><title>https://www.meetup.com/members/273645503/&#45;&gt;https://secure.meetupstatic.com/photos/member/a/e/d/1/member_284744753.jpeg</title>
<path fill="none" stroke="blue" d="M711.247,-364.615C729.419,-322.881 786.759,-206.372 877,-162.749 903.992,-149.701 1031.12,-150.268 1159.66,-154.625"/>
<polygon fill="blue" stroke="blue" points="1159.59,-158.125 1169.7,-154.973 1159.83,-151.129 1159.59,-158.125"/>
<text text-anchor="middle" x="1001" y="-165.749" font-family="Times,serif" font-size="10.00">uomoprofile:has_main_media</text>
</g>
<!-- https://www.meetup.com/members/273645503/interests -->
<g id="node15" class="node"><title>https://www.meetup.com/members/273645503/interests</title>
<g id="a_node15"><a xlink:href="https://www.meetup.com/members/273645503/interests" xlink:title="uomoprofile:Interest_Container:\nhttps://www.meetup.com/members/273645503/interests">
<polygon fill="none" stroke="black" points="1655.5,-132.749 1263.5,-132.749 1263.5,-102.749 1655.5,-102.749 1655.5,-132.749"/>
<text text-anchor="middle" x="1459.5" y="-120.749" font-family="Times,serif" font-size="10.00" fill="blue">uomoprofile:Interest_Container:</text>
<text text-anchor="middle" x="1459.5" y="-109.749" font-family="Times,serif" font-size="10.00" fill="blue">https://www.meetup.com/members/273645503/interests</text>
</a>
</g>
</g>
<!-- https://www.meetup.com/members/273645503/&#45;&gt;https://www.meetup.com/members/273645503/interests -->
<g id="edge15" class="edge"><title>https://www.meetup.com/members/273645503/&#45;&gt;https://www.meetup.com/members/273645503/interests</title>
<path fill="none" stroke="blue" d="M710.174,-364.655C726.393,-319.999 780.968,-188.436 877,-136.749 940.19,-102.739 1112.38,-100.63 1253.1,-105.486"/>
<polygon fill="blue" stroke="blue" points="1253.05,-108.987 1263.17,-105.847 1253.3,-101.991 1253.05,-108.987"/>
<text text-anchor="middle" x="1001" y="-139.749" font-family="Times,serif" font-size="10.00">uomoprofile:has_container</text>
</g>
<!-- https://www.meetup.com/members/273645503/Twitter -->
<g id="node16" class="node"><title>https://www.meetup.com/members/273645503/Twitter</title>
<g id="a_node16"><a xlink:href="https://www.meetup.com/members/273645503/Twitter" xlink:title="uomoprofile:Link_to_other_Social_Media:\nhttps://www.meetup.com/members/273645503/Twitter">
<polygon fill="none" stroke="black" points="1648,-550.749 1271,-550.749 1271,-520.749 1648,-520.749 1648,-550.749"/>
<text text-anchor="middle" x="1459.5" y="-538.749" font-family="Times,serif" font-size="10.00" fill="blue">uomoprofile:Link_to_other_Social_Media:</text>
<text text-anchor="middle" x="1459.5" y="-527.749" font-family="Times,serif" font-size="10.00" fill="blue">https://www.meetup.com/members/273645503/Twitter</text>
</a>
</g>
</g>
<!-- https://www.meetup.com/members/273645503/&#45;&gt;https://www.meetup.com/members/273645503/Twitter -->
<g id="edge16" class="edge"><title>https://www.meetup.com/members/273645503/&#45;&gt;https://www.meetup.com/members/273645503/Twitter</title>
<path fill="none" stroke="blue" d="M724.601,-394.827C755.239,-417.508 817.182,-459.862 877,-479.749 1000.32,-520.749 1145.87,-534.735 1260.5,-538.479"/>
<polygon fill="blue" stroke="blue" points="1260.69,-541.986 1270.79,-538.79 1260.9,-534.989 1260.69,-541.986"/>
<text text-anchor="middle" x="1001" y="-531.749" font-family="Times,serif" font-size="10.00">uomoprofile:has_contact_info</text>
</g>
<!-- https://www.meetup.com/members/273645503/meetups -->
<g id="node17" class="node"><title>https://www.meetup.com/members/273645503/meetups</title>
<g id="a_node17"><a xlink:href="https://www.meetup.com/members/273645503/meetups" xlink:title="uomoprofile:Network_Container:\nhttps://www.meetup.com/members/273645503/meetups">
<polygon fill="none" stroke="black" points="1648,-80.7494 1271,-80.7494 1271,-50.7494 1648,-50.7494 1648,-80.7494"/>
<text text-anchor="middle" x="1459.5" y="-68.7494" font-family="Times,serif" font-size="10.00" fill="blue">uomoprofile:Network_Container:</text>
<text text-anchor="middle" x="1459.5" y="-57.7494" font-family="Times,serif" font-size="10.00" fill="blue">https://www.meetup.com/members/273645503/meetups</text>
</a>
</g>
</g>
<!-- https://www.meetup.com/members/273645503/&#45;&gt;https://www.meetup.com/members/273645503/meetups -->
<g id="edge17" class="edge"><title>https://www.meetup.com/members/273645503/&#45;&gt;https://www.meetup.com/members/273645503/meetups</title>
<path fill="none" stroke="blue" d="M708.486,-364.725C720.981,-314.721 768.666,-153.431 877,-88.7494 1038.84,7.87801 1273.62,-24.1158 1389.08,-48.5809"/>
<polygon fill="blue" stroke="blue" points="1388.36,-52.0044 1398.87,-50.6975 1389.84,-45.1626 1388.36,-52.0044"/>
<text text-anchor="middle" x="1001" y="-91.7494" font-family="Times,serif" font-size="10.00">uomoprofile:has_container</text>
</g>
<!-- https://www.meetup.com/it&#45;IT/cities/it/bo/bologna/ -->
<g id="node4" class="node"><title>https://www.meetup.com/it&#45;IT/cities/it/bo/bologna/</title>
<g id="a_node4"><a xlink:href="https://www.meetup.com/it-IT/cities/it/bo/bologna/" xlink:title="https://www.meetup.com/it&#45;IT/cities/it/bo/bologna/">
<polygon fill="none" stroke="black" points="2614,-844.249 2222,-844.249 2222,-825.249 2614,-825.249 2614,-844.249"/>
<text text-anchor="middle" x="2418" y="-832.249" font-family="Times,serif" font-size="10.00" fill="blue">https://www.meetup.com/it&#45;IT/cities/it/bo/bologna/</text>
</a>
</g>
</g>
<!-- https://www.meetup.com/members/273645503/ActualPlace&#45;&gt;https://www.meetup.com/it&#45;IT/cities/it/bo/bologna/ -->
<g id="edge2" class="edge"><title>https://www.meetup.com/members/273645503/ActualPlace&#45;&gt;https://www.meetup.com/it&#45;IT/cities/it/bo/bologna/</title>
<path fill="none" stroke="blue" d="M1663.06,-820.561C1824.45,-823.598 2049.44,-827.832 2211.58,-830.884"/>
<polygon fill="blue" stroke="blue" points="2211.61,-834.385 2221.68,-831.074 2211.75,-827.386 2211.61,-834.385"/>
<text text-anchor="middle" x="1914.5" y="-830.749" font-family="Times,serif" font-size="10.00">uomoprofile:has_place</text>
</g>
<!-- &quot;true&quot; -->
<g id="node18" class="node"><title>&quot;true&quot;</title>
<text text-anchor="middle" x="2418" y="-592.249" font-family="Times,serif" font-size="10.00">&quot;true&quot;^^http://www.w3.org/2001/XMLSchema#boolean</text>
</g>
<!-- https://www.meetup.com/members/273645503/Tumblr&#45;&gt;&quot;true&quot; -->
<g id="edge26" class="edge"><title>https://www.meetup.com/members/273645503/Tumblr&#45;&gt;&quot;true&quot;</title>
<path fill="none" stroke="blue" d="M1644.07,-635.153C1808.85,-626.54 2050.1,-613.929 2219.12,-605.093"/>
<polygon fill="blue" stroke="blue" points="2219.33,-608.587 2229.13,-604.57 2218.96,-601.597 2219.33,-608.587"/>
<text text-anchor="middle" x="1914.5" y="-630.749" font-family="Times,serif" font-size="10.00">uomoprofile:social_media_icon</text>
</g>
<!-- &quot;https://demyhanna.tumblr.com/&quot; -->
<g id="node24" class="node"><title>&quot;https://demyhanna.tumblr.com/&quot;</title>
<text text-anchor="middle" x="2418" y="-716.249" font-family="Times,serif" font-size="10.00">&quot;https://demyhanna.tumblr.com/&quot;^^http://www.w3.org/2001/XMLSchema#anyURI</text>
</g>
<!-- https://www.meetup.com/members/273645503/Tumblr&#45;&gt;&quot;https://demyhanna.tumblr.com/&quot; -->
<g id="edge27" class="edge"><title>https://www.meetup.com/members/273645503/Tumblr&#45;&gt;&quot;https://demyhanna.tumblr.com/&quot;</title>
<path fill="none" stroke="blue" d="M1578.03,-659.76C1641.83,-667.501 1722.15,-676.585 1794,-682.749 1903.28,-692.125 2023.55,-699.715 2129.04,-705.466"/>
<polygon fill="blue" stroke="blue" points="2129.02,-708.97 2139.2,-706.016 2129.4,-701.98 2129.02,-708.97"/>
<text text-anchor="middle" x="1914.5" y="-703.749" font-family="Times,serif" font-size="10.00">uomoprofile:link</text>
</g>
<!-- &quot;Demetra Hanna Davis Keys&quot; -->
<g id="node26" class="node"><title>&quot;Demetra Hanna Davis Keys&quot;</title>
<text text-anchor="middle" x="2418" y="-391.249" font-family="Times,serif" font-size="10.00">&quot;Demetra Hanna Davis Keys&quot;^^http://www.w3.org/2000/01/rdf&#45;schema#Literal</text>
</g>
<!-- https://www.meetup.com/members/273645503/FullName&#45;&gt;&quot;Demetra Hanna Davis Keys&quot; -->
<g id="edge29" class="edge"><title>https://www.meetup.com/members/273645503/FullName&#45;&gt;&quot;Demetra Hanna Davis Keys&quot;</title>
<path fill="none" stroke="blue" d="M1651.83,-422.154C1698.35,-419.936 1747.96,-417.667 1794,-415.749 1903.47,-411.191 2023.78,-406.797 2129.25,-403.151"/>
<polygon fill="blue" stroke="blue" points="2129.53,-406.643 2139.4,-402.801 2129.29,-399.648 2129.53,-406.643"/>
<text text-anchor="middle" x="1914.5" y="-418.749" font-family="Times,serif" font-size="10.00">uomoprofile:full_name</text>
</g>
<!-- https://www.meetup.com/members/273645503/Date -->
<g id="node20" class="node"><title>https://www.meetup.com/members/273645503/Date</title>
<g id="a_node20"><a xlink:href="https://www.meetup.com/members/273645503/Date" xlink:title="j.1:timeInstant:\nhttps://www.meetup.com/members/273645503/Date">
<polygon fill="none" stroke="black" points="2595,-353.749 2241,-353.749 2241,-323.749 2595,-323.749 2595,-353.749"/>
<text text-anchor="middle" x="2418" y="-341.749" font-family="Times,serif" font-size="10.00" fill="blue">j.1:timeInstant:</text>
<text text-anchor="middle" x="2418" y="-330.749" font-family="Times,serif" font-size="10.00" fill="blue">https://www.meetup.com/members/273645503/Date</text>
</a>
</g>
</g>
<!-- https://www.meetup.com/members/273645503/InscriptionDate&#45;&gt;https://www.meetup.com/members/273645503/Date -->
<g id="edge25" class="edge"><title>https://www.meetup.com/members/273645503/InscriptionDate&#45;&gt;https://www.meetup.com/members/273645503/Date</title>
<path fill="none" stroke="blue" d="M1678.14,-370.42C1844.83,-363.275 2072.32,-353.524 2230.66,-346.737"/>
<polygon fill="blue" stroke="blue" points="2231.15,-350.219 2240.99,-346.294 2230.85,-343.225 2231.15,-350.219"/>
<text text-anchor="middle" x="1914.5" y="-368.749" font-family="Times,serif" font-size="10.00">j.1:timehas_time</text>
</g>
<!-- https://www.meetup.com/members/273645503/Facebook&#45;&gt;&quot;true&quot; -->
<g id="edge23" class="edge"><title>https://www.meetup.com/members/273645503/Facebook&#45;&gt;&quot;true&quot;</title>
<path fill="none" stroke="blue" d="M1651.58,-742.566C1813.19,-738.123 2020.8,-729.899 2035,-716.749 2062.95,-690.864 2018.67,-658.288 2046,-631.749 2118.73,-561.116 2241.35,-563.065 2325.58,-575.22"/>
<polygon fill="blue" stroke="blue" points="2325.24,-578.709 2335.66,-576.748 2326.29,-571.788 2325.24,-578.709"/>
<text text-anchor="middle" x="1914.5" y="-740.749" font-family="Times,serif" font-size="10.00">uomoprofile:social_media_icon</text>
</g>
<!-- &quot;http://www.facebook.com/profile.php?id=107487310380771&quot; -->
<g id="node23" class="node"><title>&quot;http://www.facebook.com/profile.php?id=107487310380771&quot;</title>
<text text-anchor="middle" x="2418" y="-782.249" font-family="Times,serif" font-size="10.00">&quot;http://www.facebook.com/profile.php?id=107487310380771&quot;^^http://www.w3.org/2001/XMLSchema#anyURI</text>
</g>
<!-- https://www.meetup.com/members/273645503/Facebook&#45;&gt;&quot;http://www.facebook.com/profile.php?id=107487310380771&quot; -->
<g id="edge24" class="edge"><title>https://www.meetup.com/members/273645503/Facebook&#45;&gt;&quot;http://www.facebook.com/profile.php?id=107487310380771&quot;</title>
<path fill="none" stroke="blue" d="M1651.76,-754.348C1761.62,-758.712 1903.53,-764.35 2035.25,-769.583"/>
<polygon fill="blue" stroke="blue" points="2035.39,-773.091 2045.52,-769.991 2035.67,-766.097 2035.39,-773.091"/>
<text text-anchor="middle" x="1914.5" y="-772.749" font-family="Times,serif" font-size="10.00">uomoprofile:link</text>
</g>
<!-- https://www.meetup.com/members/273645503/Linkedin&#45;&gt;&quot;true&quot; -->
<g id="edge18" class="edge"><title>https://www.meetup.com/members/273645503/Linkedin&#45;&gt;&quot;true&quot;</title>
<path fill="none" stroke="blue" d="M1651.76,-593.149C1816.23,-593.493 2052.56,-593.987 2218.97,-594.335"/>
<polygon fill="blue" stroke="blue" points="2219.32,-597.836 2229.33,-594.357 2219.34,-590.836 2219.32,-597.836"/>
<text text-anchor="middle" x="1914.5" y="-597.749" font-family="Times,serif" font-size="10.00">uomoprofile:social_media_icon</text>
</g>
<!-- &quot;https://www.linkedin.com/in/demetra&#45;hannah&#45;1447589157/&quot; -->
<g id="node19" class="node"><title>&quot;https://www.linkedin.com/in/demetra&#45;hannah&#45;1447589157/&quot;</title>
<text text-anchor="middle" x="2418" y="-658.249" font-family="Times,serif" font-size="10.00">&quot;https://www.linkedin.com/in/demetra&#45;hannah&#45;1447589157/&quot;^^http://www.w3.org/2001/XMLSchema#anyURI</text>
</g>
<!-- https://www.meetup.com/members/273645503/Linkedin&#45;&gt;&quot;https://www.linkedin.com/in/demetra&#45;hannah&#45;1447589157/&quot; -->
<g id="edge19" class="edge"><title>https://www.meetup.com/members/273645503/Linkedin&#45;&gt;&quot;https://www.linkedin.com/in/demetra&#45;hannah&#45;1447589157/&quot;</title>
<path fill="none" stroke="blue" d="M1541.79,-577.712C1612.12,-569.37 1713.2,-569.091 1783,-618.749 1792.89,-625.787 1783.93,-636.978 1794,-643.749 1816.82,-659.09 1919.77,-664.927 2035.6,-666.39"/>
<polygon fill="blue" stroke="blue" points="2035.72,-669.892 2045.76,-666.507 2035.8,-662.892 2035.72,-669.892"/>
<text text-anchor="middle" x="1914.5" y="-669.749" font-family="Times,serif" font-size="10.00">uomoprofile:link</text>
</g>
<!-- https://www.meetup.com/members/273645503/Flickr&#45;&gt;&quot;true&quot; -->
<g id="edge32" class="edge"><title>https://www.meetup.com/members/273645503/Flickr&#45;&gt;&quot;true&quot;</title>
<path fill="none" stroke="blue" d="M1600.85,-468.738C1749.41,-456.066 1971.1,-447.365 2035,-499.749 2051.93,-513.625 2029.78,-533.06 2046,-547.749 2107.26,-603.213 2199.32,-615.142 2276.41,-613.116"/>
<polygon fill="blue" stroke="blue" points="2276.82,-616.604 2286.7,-612.762 2276.58,-609.608 2276.82,-616.604"/>
<text text-anchor="middle" x="1914.5" y="-502.749" font-family="Times,serif" font-size="10.00">uomoprofile:social_media_icon</text>
</g>
<!-- &quot;https://www.flickr.com/photos/156178253@N07&quot; -->
<g id="node28" class="node"><title>&quot;https://www.flickr.com/photos/156178253@N07&quot;</title>
<text text-anchor="middle" x="2418" y="-449.249" font-family="Times,serif" font-size="10.00">&quot;https://www.flickr.com/photos/156178253@N07&quot;^^http://www.w3.org/2001/XMLSchema#anyURI</text>
</g>
<!-- https://www.meetup.com/members/273645503/Flickr&#45;&gt;&quot;https://www.flickr.com/photos/156178253@N07&quot; -->
<g id="edge33" class="edge"><title>https://www.meetup.com/members/273645503/Flickr&#45;&gt;&quot;https://www.flickr.com/photos/156178253@N07&quot;</title>
<path fill="none" stroke="blue" d="M1644.15,-495.602C1691.75,-491.712 1741.31,-481.026 1783,-457.749 1790.22,-453.719 1786.63,-446.486 1794,-442.749 1821.27,-428.93 1945.96,-429.072 2076.7,-433.539"/>
<polygon fill="blue" stroke="blue" points="2076.81,-437.045 2086.93,-433.896 2077.06,-430.049 2076.81,-437.045"/>
<text text-anchor="middle" x="1914.5" y="-445.749" font-family="Times,serif" font-size="10.00">uomoprofile:link</text>
</g>
<!-- https://secure.meetupstatic.com/photos/member/a/e/d/1/member_284744753.jpeg&#45;&gt;https://www.meetup.com/members/273645503/ -->
<g id="edge22" class="edge"><title>https://secure.meetupstatic.com/photos/member/a/e/d/1/member_284744753.jpeg&#45;&gt;https://www.meetup.com/members/273645503/</title>
<path fill="none" stroke="blue" d="M1169.64,-181.306C1037.98,-188.199 905.083,-198.09 877,-210.749 805.805,-242.842 747.038,-317.901 720.39,-356.267"/>
<polygon fill="blue" stroke="blue" points="717.351,-354.511 714.611,-364.746 723.135,-358.454 717.351,-354.511"/>
<text text-anchor="middle" x="1001" y="-213.749" font-family="Times,serif" font-size="10.00">uomoprofile:is_main_media_of</text>
</g>
<!-- http://uomodhdk.github.io/Ontology/uomoprofile.owl#Algorithmic_Order_Normal -->
<g id="node25" class="node"><title>http://uomodhdk.github.io/Ontology/uomoprofile.owl#Algorithmic_Order_Normal</title>
<g id="a_node25"><a xlink:href="http://uomodhdk.github.io/Ontology/uomoprofile.owl#Algorithmic_Order_Normal" xlink:title="http://uomodhdk.github.io/Ontology/uomoprofile.owl#Algorithmic_Order_Normal">
<polygon fill="none" stroke="black" points="2707.5,-127.249 2128.5,-127.249 2128.5,-108.249 2707.5,-108.249 2707.5,-127.249"/>
<text text-anchor="middle" x="2418" y="-115.249" font-family="Times,serif" font-size="10.00" fill="blue">http://uomodhdk.github.io/Ontology/uomoprofile.owl#Algorithmic_Order_Normal</text>
</a>
</g>
</g>
<!-- https://www.meetup.com/members/273645503/interests&#45;&gt;http://uomodhdk.github.io/Ontology/uomoprofile.owl#Algorithmic_Order_Normal -->
<g id="edge28" class="edge"><title>https://www.meetup.com/members/273645503/interests&#45;&gt;http://uomodhdk.github.io/Ontology/uomoprofile.owl#Algorithmic_Order_Normal</title>
<path fill="none" stroke="blue" d="M1655.5,-117.749C1788.48,-117.749 1967.13,-117.749 2117.96,-117.749"/>
<polygon fill="blue" stroke="blue" points="2118.32,-121.249 2128.32,-117.749 2118.32,-114.249 2118.32,-121.249"/>
<text text-anchor="middle" x="1914.5" y="-120.749" font-family="Times,serif" font-size="10.00">uomoprofile:has_displaying_order</text>
</g>
<!-- https://www.meetup.com/members/273645503/Twitter&#45;&gt;&quot;true&quot; -->
<g id="edge30" class="edge"><title>https://www.meetup.com/members/273645503/Twitter&#45;&gt;&quot;true&quot;</title>
<path fill="none" stroke="blue" d="M1648.05,-547.318C1812.77,-557.478 2051.62,-572.212 2219.3,-582.555"/>
<polygon fill="blue" stroke="blue" points="2219.29,-586.06 2229.48,-583.183 2219.72,-579.074 2219.29,-586.06"/>
<text text-anchor="middle" x="1914.5" y="-573.749" font-family="Times,serif" font-size="10.00">uomoprofile:social_media_icon</text>
</g>
<!-- &quot;https://twitter.com/KeysDemetra&quot; -->
<g id="node27" class="node"><title>&quot;https://twitter.com/KeysDemetra&quot;</title>
<text text-anchor="middle" x="2418" y="-516.249" font-family="Times,serif" font-size="10.00">&quot;https://twitter.com/KeysDemetra&quot;^^http://www.w3.org/2001/XMLSchema#anyURI</text>
</g>
<!-- https://www.meetup.com/members/273645503/Twitter&#45;&gt;&quot;https://twitter.com/KeysDemetra&quot; -->
<g id="edge31" class="edge"><title>https://www.meetup.com/members/273645503/Twitter&#45;&gt;&quot;https://twitter.com/KeysDemetra&quot;</title>
<path fill="none" stroke="blue" d="M1648.28,-524.498C1695.81,-522.113 1746.77,-519.952 1794,-518.749 1900.73,-516.031 2017.78,-515.409 2121.33,-515.671"/>
<polygon fill="blue" stroke="blue" points="2121.62,-519.171 2131.63,-515.7 2121.64,-512.171 2121.62,-519.171"/>
<text text-anchor="middle" x="1914.5" y="-521.749" font-family="Times,serif" font-size="10.00">uomoprofile:link</text>
</g>
<!-- http://uomodhdk.github.io/Ontology/uomoprofile.owl#Alphabetical_Order_Normal -->
<g id="node22" class="node"><title>http://uomodhdk.github.io/Ontology/uomoprofile.owl#Alphabetical_Order_Normal</title>
<g id="a_node22"><a xlink:href="http://uomodhdk.github.io/Ontology/uomoprofile.owl#Alphabetical_Order_Normal" xlink:title="http://uomodhdk.github.io/Ontology/uomoprofile.owl#Alphabetical_Order_Normal">
<polygon fill="none" stroke="black" points="2711.5,-75.2494 2124.5,-75.2494 2124.5,-56.2494 2711.5,-56.2494 2711.5,-75.2494"/>
<text text-anchor="middle" x="2418" y="-63.2494" font-family="Times,serif" font-size="10.00" fill="blue">http://uomodhdk.github.io/Ontology/uomoprofile.owl#Alphabetical_Order_Normal</text>
</a>
</g>
</g>
<!-- https://www.meetup.com/members/273645503/meetups&#45;&gt;http://uomodhdk.github.io/Ontology/uomoprofile.owl#Alphabetical_Order_Normal -->
<g id="edge21" class="edge"><title>https://www.meetup.com/members/273645503/meetups&#45;&gt;http://uomodhdk.github.io/Ontology/uomoprofile.owl#Alphabetical_Order_Normal</title>
<path fill="none" stroke="blue" d="M1648.05,-65.7494C1780.72,-65.7494 1961.48,-65.7494 2114.41,-65.7494"/>
<polygon fill="blue" stroke="blue" points="2114.44,-69.2495 2124.44,-65.7494 2114.44,-62.2495 2114.44,-69.2495"/>
<text text-anchor="middle" x="1914.5" y="-68.7494" font-family="Times,serif" font-size="10.00">uomoprofile:has_displaying_order</text>
</g>
<!-- &quot;2019/02/03&quot; -->
<g id="node21" class="node"><title>&quot;2019/02/03&quot;</title>
<text text-anchor="middle" x="3139.5" y="-336.249" font-family="Times,serif" font-size="10.00">&quot;2019/02/03&quot;^^http://www.w3.org/2001/XMLSchema#date</text>
</g>
<!-- https://www.meetup.com/members/273645503/Date&#45;&gt;&quot;2019/02/03&quot; -->
<g id="edge20" class="edge"><title>https://www.meetup.com/members/273645503/Date&#45;&gt;&quot;2019/02/03&quot;</title>
<path fill="none" stroke="blue" d="M2595.01,-338.749C2696.07,-338.749 2823.57,-338.749 2929.68,-338.749"/>
<polygon fill="blue" stroke="blue" points="2929.88,-342.249 2939.88,-338.749 2929.88,-335.249 2929.88,-342.249"/>
<text text-anchor="middle" x="2865" y="-341.749" font-family="Times,serif" font-size="10.00">j.1:timeinXSDDate</text>
</g>
</g>
</svg>
