<?xml version="1.0" encoding="UTF-8" standalone="no"?>
<!DOCTYPE svg PUBLIC "-//W3C//DTD SVG 1.1//EN"
 "http://www.w3.org/Graphics/SVG/1.1/DTD/svg11.dtd">
<!-- Generated by graphviz version 2.38.0 (20140413.2041)
 -->
<!-- Title: d1e610 Pages: 1 -->
<svg width="3266pt" height="999pt"
 viewBox="0.00 0.00 3266.00 998.61" xmlns="http://www.w3.org/2000/svg" xmlns:xlink="http://www.w3.org/1999/xlink">
<g id="graph0" class="graph" transform="scale(1 1) rotate(0) translate(4 994.61)">
<title>d1e610</title>
<polygon fill="white" stroke="none" points="-4,4 -4,-994.61 3262,-994.61 3262,4 -4,4"/>
<text text-anchor="middle" x="1629" y="-7.8" font-family="Times,serif" font-size="14.00">Powered by http://rhizomik.net</text>
<!-- https://www.pinterest.it/DemetraHanna/34 -->
<g id="node1" class="node"><title>https://www.pinterest.it/DemetraHanna/34</title>
<g id="a_node1"><a xlink:href="https://www.pinterest.it/DemetraHanna/34" xlink:title="uomoprofile:Content_Container:\nhttps://www.pinterest.it/DemetraHanna/34">
<polygon fill="none" stroke="black" points="960.5,-477.61 643.5,-477.61 643.5,-447.61 960.5,-447.61 960.5,-477.61"/>
<text text-anchor="middle" x="802" y="-465.61" font-family="Times,serif" font-size="10.00" fill="blue">uomoprofile:Content_Container:</text>
<text text-anchor="middle" x="802" y="-454.61" font-family="Times,serif" font-size="10.00" fill="blue">https://www.pinterest.it/DemetraHanna/34</text>
</a>
</g>
</g>
<!-- https://www.pinterest.it/DemetraHanna/FullName -->
<g id="node2" class="node"><title>https://www.pinterest.it/DemetraHanna/FullName</title>
<g id="a_node2"><a xlink:href="https://www.pinterest.it/DemetraHanna/FullName" xlink:title="uomoprofile:Biographical_Info:\nhttps://www.pinterest.it/DemetraHanna/FullName">
<polygon fill="none" stroke="black" points="1776,-878.61 1414,-878.61 1414,-848.61 1776,-848.61 1776,-878.61"/>
<text text-anchor="middle" x="1595" y="-866.61" font-family="Times,serif" font-size="10.00" fill="blue">uomoprofile:Biographical_Info:</text>
<text text-anchor="middle" x="1595" y="-855.61" font-family="Times,serif" font-size="10.00" fill="blue">https://www.pinterest.it/DemetraHanna/FullName</text>
</a>
</g>
</g>
<!-- &quot;Demetra Hanna Davis Keys&quot; -->
<g id="node3" class="node"><title>&quot;Demetra Hanna Davis Keys&quot;</title>
<text text-anchor="middle" x="2422.5" y="-861.11" font-family="Times,serif" font-size="10.00">&quot;Demetra Hanna Davis Keys&quot;^^http://www.w3.org/2000/01/rdf&#45;schema#Literal</text>
</g>
<!-- https://www.pinterest.it/DemetraHanna/FullName&#45;&gt;&quot;Demetra Hanna Davis Keys&quot; -->
<g id="edge1" class="edge"><title>https://www.pinterest.it/DemetraHanna/FullName&#45;&gt;&quot;Demetra Hanna Davis Keys&quot;</title>
<path fill="none" stroke="blue" d="M1776.14,-863.61C1880.66,-863.61 2014.74,-863.61 2133.57,-863.61"/>
<polygon fill="blue" stroke="blue" points="2133.92,-867.11 2143.92,-863.61 2133.92,-860.11 2133.92,-867.11"/>
<text text-anchor="middle" x="2035" y="-866.61" font-family="Times,serif" font-size="10.00">uomoprofile:fullname</text>
</g>
<!-- https://i&#45;h2.pinimg.com/280x280_RS/5c/80/f2/5c80f27786891a478307473b5ef00f02.jpg -->
<g id="node4" class="node"><title>https://i&#45;h2.pinimg.com/280x280_RS/5c/80/f2/5c80f27786891a478307473b5ef00f02.jpg</title>
<g id="a_node4"><a xlink:href="https://i-h2.pinimg.com/280x280_RS/5c/80/f2/5c80f27786891a478307473b5ef00f02.jpg" xlink:title="uomoprofile:Profile_Media:\nhttps://i&#45;h2.pinimg.com/280x280_RS/5c/80/f2/5c80f27786891a478307473b5ef00f02.jpg">
<polygon fill="none" stroke="black" points="1903.5,-942.61 1286.5,-942.61 1286.5,-912.61 1903.5,-912.61 1903.5,-942.61"/>
<text text-anchor="middle" x="1595" y="-930.61" font-family="Times,serif" font-size="10.00" fill="blue">uomoprofile:Profile_Media:</text>
<text text-anchor="middle" x="1595" y="-919.61" font-family="Times,serif" font-size="10.00" fill="blue">https://i&#45;h2.pinimg.com/280x280_RS/5c/80/f2/5c80f27786891a478307473b5ef00f02.jpg</text>
</a>
</g>
</g>
<!-- https://www.pinterest.it/DemetraHanna/ -->
<g id="node5" class="node"><title>https://www.pinterest.it/DemetraHanna/</title>
<g id="a_node5"><a xlink:href="https://www.pinterest.it/DemetraHanna/" xlink:title="uomoprofile:User_Profile:\nhttps://www.pinterest.it/DemetraHanna/">
<polygon fill="none" stroke="black" points="953,-536.61 651,-536.61 651,-506.61 953,-506.61 953,-536.61"/>
<text text-anchor="middle" x="802" y="-524.61" font-family="Times,serif" font-size="10.00" fill="blue">uomoprofile:User_Profile:</text>
<text text-anchor="middle" x="802" y="-513.61" font-family="Times,serif" font-size="10.00" fill="blue">https://www.pinterest.it/DemetraHanna/</text>
</a>
</g>
</g>
<!-- https://i&#45;h2.pinimg.com/280x280_RS/5c/80/f2/5c80f27786891a478307473b5ef00f02.jpg&#45;&gt;https://www.pinterest.it/DemetraHanna/ -->
<g id="edge2" class="edge"><title>https://i&#45;h2.pinimg.com/280x280_RS/5c/80/f2/5c80f27786891a478307473b5ef00f02.jpg&#45;&gt;https://www.pinterest.it/DemetraHanna/</title>
<path fill="none" stroke="blue" d="M1404.09,-912.597C1235.19,-898.93 1013.52,-880.075 1005,-874.61 881.991,-795.697 825.845,-613.637 808.853,-546.804"/>
<polygon fill="blue" stroke="blue" points="812.166,-545.623 806.374,-536.751 805.37,-547.299 812.166,-545.623"/>
<text text-anchor="middle" x="1129" y="-903.61" font-family="Times,serif" font-size="10.00">uomoprofile:is_main_media_of</text>
</g>
<!-- https://www.pinterest.it/DemetraHanna/&#45;&gt;https://www.pinterest.it/DemetraHanna/FullName -->
<g id="edge15" class="edge"><title>https://www.pinterest.it/DemetraHanna/&#45;&gt;https://www.pinterest.it/DemetraHanna/FullName</title>
<path fill="none" stroke="blue" d="M807.433,-536.922C823.559,-589.472 884.57,-763.068 1005,-832.61 1039.08,-852.292 1244.68,-859.514 1403.48,-862.143"/>
<polygon fill="blue" stroke="blue" points="1403.81,-865.649 1413.87,-862.31 1403.93,-858.65 1403.81,-865.649"/>
<text text-anchor="middle" x="1129" y="-861.61" font-family="Times,serif" font-size="10.00">uomoprofile:has_biographical_info</text>
</g>
<!-- https://www.pinterest.it/DemetraHanna/&#45;&gt;https://i&#45;h2.pinimg.com/280x280_RS/5c/80/f2/5c80f27786891a478307473b5ef00f02.jpg -->
<g id="edge23" class="edge"><title>https://www.pinterest.it/DemetraHanna/&#45;&gt;https://i&#45;h2.pinimg.com/280x280_RS/5c/80/f2/5c80f27786891a478307473b5ef00f02.jpg</title>
<path fill="none" stroke="blue" d="M805.321,-536.965C815.455,-597.945 861.915,-824.027 1005,-913.61 1171,-1017.54 1418.18,-973.834 1532.24,-945.199"/>
<polygon fill="blue" stroke="blue" points="1533.37,-948.521 1542.2,-942.652 1531.64,-941.739 1533.37,-948.521"/>
<text text-anchor="middle" x="1129" y="-982.61" font-family="Times,serif" font-size="10.00">uomoprofile:has_main_media</text>
</g>
<!-- https://www.pinterest.it/DemetraHanna/user -->
<g id="node7" class="node"><title>https://www.pinterest.it/DemetraHanna/user</title>
<g id="a_node7"><a xlink:href="https://www.pinterest.it/DemetraHanna/user" xlink:title="sioc:UserAccount:\nhttps://www.pinterest.it/DemetraHanna/user">
<polygon fill="none" stroke="black" points="1761,-825.61 1429,-825.61 1429,-795.61 1761,-795.61 1761,-825.61"/>
<text text-anchor="middle" x="1595" y="-813.61" font-family="Times,serif" font-size="10.00" fill="blue">sioc:UserAccount:</text>
<text text-anchor="middle" x="1595" y="-802.61" font-family="Times,serif" font-size="10.00" fill="blue">https://www.pinterest.it/DemetraHanna/user</text>
</a>
</g>
</g>
<!-- https://www.pinterest.it/DemetraHanna/&#45;&gt;https://www.pinterest.it/DemetraHanna/user -->
<g id="edge20" class="edge"><title>https://www.pinterest.it/DemetraHanna/&#45;&gt;https://www.pinterest.it/DemetraHanna/user</title>
<path fill="none" stroke="blue" d="M808.386,-536.837C826.697,-585.98 891.788,-740.591 1005,-799.61 1040.94,-818.346 1258.21,-818.096 1418.47,-815.189"/>
<polygon fill="blue" stroke="blue" points="1419,-818.68 1428.94,-814.994 1418.87,-811.681 1419,-818.68"/>
<text text-anchor="middle" x="1129" y="-819.61" font-family="Times,serif" font-size="10.00">uomoprofile:created_by</text>
</g>
<!-- https://www.pinterest.it/DemetraHanna/topics -->
<g id="node9" class="node"><title>https://www.pinterest.it/DemetraHanna/topics</title>
<g id="a_node9"><a xlink:href="https://www.pinterest.it/DemetraHanna/topics" xlink:title="uomoprofile:Interest_Container:\nhttps://www.pinterest.it/DemetraHanna/topics">
<polygon fill="none" stroke="black" points="1768.5,-745.61 1421.5,-745.61 1421.5,-715.61 1768.5,-715.61 1768.5,-745.61"/>
<text text-anchor="middle" x="1595" y="-733.61" font-family="Times,serif" font-size="10.00" fill="blue">uomoprofile:Interest_Container:</text>
<text text-anchor="middle" x="1595" y="-722.61" font-family="Times,serif" font-size="10.00" fill="blue">https://www.pinterest.it/DemetraHanna/topics</text>
</a>
</g>
</g>
<!-- https://www.pinterest.it/DemetraHanna/&#45;&gt;https://www.pinterest.it/DemetraHanna/topics -->
<g id="edge18" class="edge"><title>https://www.pinterest.it/DemetraHanna/&#45;&gt;https://www.pinterest.it/DemetraHanna/topics</title>
<path fill="none" stroke="blue" d="M812.15,-536.887C837.065,-576.801 910.615,-683.855 1005,-723.61 1075.7,-753.386 1265.81,-750.667 1411.11,-743.312"/>
<polygon fill="blue" stroke="blue" points="1411.68,-746.787 1421.49,-742.775 1411.32,-739.797 1411.68,-746.787"/>
<text text-anchor="middle" x="1129" y="-751.61" font-family="Times,serif" font-size="10.00">uomoprofile:has_container</text>
</g>
<!-- https://www.pinterest.it/DemetraHanna/pins -->
<g id="node10" class="node"><title>https://www.pinterest.it/DemetraHanna/pins</title>
<g id="a_node10"><a xlink:href="https://www.pinterest.it/DemetraHanna/pins" xlink:title="uomoprofile:Content_Container:\nhttps://www.pinterest.it/DemetraHanna/pins">
<polygon fill="none" stroke="black" points="1761,-669.61 1429,-669.61 1429,-639.61 1761,-639.61 1761,-669.61"/>
<text text-anchor="middle" x="1595" y="-657.61" font-family="Times,serif" font-size="10.00" fill="blue">uomoprofile:Content_Container:</text>
<text text-anchor="middle" x="1595" y="-646.61" font-family="Times,serif" font-size="10.00" fill="blue">https://www.pinterest.it/DemetraHanna/pins</text>
</a>
</g>
</g>
<!-- https://www.pinterest.it/DemetraHanna/&#45;&gt;https://www.pinterest.it/DemetraHanna/pins -->
<g id="edge25" class="edge"><title>https://www.pinterest.it/DemetraHanna/&#45;&gt;https://www.pinterest.it/DemetraHanna/pins</title>
<path fill="none" stroke="blue" d="M819.77,-536.674C852.507,-564.963 928.441,-625.197 1005,-647.61 1079.64,-669.46 1273.5,-667.817 1418.57,-662.884"/>
<polygon fill="blue" stroke="blue" points="1419.06,-666.37 1428.93,-662.524 1418.82,-659.374 1419.06,-666.37"/>
<text text-anchor="middle" x="1129" y="-669.61" font-family="Times,serif" font-size="10.00">uomoprofile:has_container</text>
</g>
<!-- https://www.pinterest.it/DemetraHanna/following -->
<g id="node11" class="node"><title>https://www.pinterest.it/DemetraHanna/following</title>
<g id="a_node11"><a xlink:href="https://www.pinterest.it/DemetraHanna/following" xlink:title="uomoprofile:Following:\nhttps://www.pinterest.it/DemetraHanna/following">
<polygon fill="none" stroke="black" points="1779.5,-593.61 1410.5,-593.61 1410.5,-563.61 1779.5,-563.61 1779.5,-593.61"/>
<text text-anchor="middle" x="1595" y="-581.61" font-family="Times,serif" font-size="10.00" fill="blue">uomoprofile:Following:</text>
<text text-anchor="middle" x="1595" y="-570.61" font-family="Times,serif" font-size="10.00" fill="blue">https://www.pinterest.it/DemetraHanna/following</text>
</a>
</g>
</g>
<!-- https://www.pinterest.it/DemetraHanna/&#45;&gt;https://www.pinterest.it/DemetraHanna/following -->
<g id="edge27" class="edge"><title>https://www.pinterest.it/DemetraHanna/&#45;&gt;https://www.pinterest.it/DemetraHanna/following</title>
<path fill="none" stroke="blue" d="M852.668,-536.616C893.221,-548.088 952.242,-563.018 1005,-569.61 1136.01,-585.977 1284.68,-588.125 1399.88,-586.233"/>
<polygon fill="blue" stroke="blue" points="1400.28,-589.726 1410.22,-586.051 1400.16,-582.728 1400.28,-589.726"/>
<text text-anchor="middle" x="1129" y="-589.61" font-family="Times,serif" font-size="10.00">uomoprofile:has_container</text>
</g>
<!-- https://www.pinterest.it/DemetraHanna/followers -->
<g id="node13" class="node"><title>https://www.pinterest.it/DemetraHanna/followers</title>
<g id="a_node13"><a xlink:href="https://www.pinterest.it/DemetraHanna/followers" xlink:title="uomoprofile:Followers:\nhttps://www.pinterest.it/DemetraHanna/followers">
<polygon fill="none" stroke="black" points="1779.5,-517.61 1410.5,-517.61 1410.5,-487.61 1779.5,-487.61 1779.5,-517.61"/>
<text text-anchor="middle" x="1595" y="-505.61" font-family="Times,serif" font-size="10.00" fill="blue">uomoprofile:Followers:</text>
<text text-anchor="middle" x="1595" y="-494.61" font-family="Times,serif" font-size="10.00" fill="blue">https://www.pinterest.it/DemetraHanna/followers</text>
</a>
</g>
</g>
<!-- https://www.pinterest.it/DemetraHanna/&#45;&gt;https://www.pinterest.it/DemetraHanna/followers -->
<g id="edge29" class="edge"><title>https://www.pinterest.it/DemetraHanna/&#45;&gt;https://www.pinterest.it/DemetraHanna/followers</title>
<path fill="none" stroke="blue" d="M953.177,-518.002C1079.94,-514.957 1262.28,-510.577 1400.07,-507.268"/>
<polygon fill="blue" stroke="blue" points="1400.42,-510.76 1410.33,-507.021 1400.25,-503.762 1400.42,-510.76"/>
<text text-anchor="middle" x="1129" y="-519.61" font-family="Times,serif" font-size="10.00">uomoprofile:has_container</text>
</g>
<!-- https://www.pinterest.it/DemetraHanna/numoffollowing -->
<g id="node14" class="node"><title>https://www.pinterest.it/DemetraHanna/numoffollowing</title>
<g id="a_node14"><a xlink:href="https://www.pinterest.it/DemetraHanna/numoffollowing" xlink:title="uomoprofile:Number_of_following:\nhttps://www.pinterest.it/DemetraHanna/numoffollowing">
<polygon fill="none" stroke="black" points="1798.5,-446.61 1391.5,-446.61 1391.5,-416.61 1798.5,-416.61 1798.5,-446.61"/>
<text text-anchor="middle" x="1595" y="-434.61" font-family="Times,serif" font-size="10.00" fill="blue">uomoprofile:Number_of_following:</text>
<text text-anchor="middle" x="1595" y="-423.61" font-family="Times,serif" font-size="10.00" fill="blue">https://www.pinterest.it/DemetraHanna/numoffollowing</text>
</a>
</g>
</g>
<!-- https://www.pinterest.it/DemetraHanna/&#45;&gt;https://www.pinterest.it/DemetraHanna/numoffollowing -->
<g id="edge28" class="edge"><title>https://www.pinterest.it/DemetraHanna/&#45;&gt;https://www.pinterest.it/DemetraHanna/numoffollowing</title>
<path fill="none" stroke="blue" d="M953.221,-513.042C968.195,-507.3 982.195,-499.386 994,-488.61 1007.93,-475.89 990.188,-459.295 1005,-447.61 1034.54,-424.303 1224.72,-422.503 1381.1,-425.186"/>
<polygon fill="blue" stroke="blue" points="1381.29,-428.69 1391.35,-425.369 1381.42,-421.691 1381.29,-428.69"/>
<text text-anchor="middle" x="1129" y="-450.61" font-family="Times,serif" font-size="10.00">uomoprofile:has_stats</text>
</g>
<!-- https://www.pinterest.it/DemetraHanna/numoffollower -->
<g id="node16" class="node"><title>https://www.pinterest.it/DemetraHanna/numoffollower</title>
<g id="a_node16"><a xlink:href="https://www.pinterest.it/DemetraHanna/numoffollower" xlink:title="uomoprofile:Number_of_followers:\nhttps://www.pinterest.it/DemetraHanna/numoffollower">
<polygon fill="none" stroke="black" points="1794.5,-374.61 1395.5,-374.61 1395.5,-344.61 1794.5,-344.61 1794.5,-374.61"/>
<text text-anchor="middle" x="1595" y="-362.61" font-family="Times,serif" font-size="10.00" fill="blue">uomoprofile:Number_of_followers:</text>
<text text-anchor="middle" x="1595" y="-351.61" font-family="Times,serif" font-size="10.00" fill="blue">https://www.pinterest.it/DemetraHanna/numoffollower</text>
</a>
</g>
</g>
<!-- https://www.pinterest.it/DemetraHanna/&#45;&gt;https://www.pinterest.it/DemetraHanna/numoffollower -->
<g id="edge22" class="edge"><title>https://www.pinterest.it/DemetraHanna/&#45;&gt;https://www.pinterest.it/DemetraHanna/numoffollower</title>
<path fill="none" stroke="blue" d="M953.193,-515.641C968.556,-509.52 982.655,-500.806 994,-488.61 1010.88,-470.46 986.885,-394.529 1005,-377.61 1032.8,-351.644 1227.12,-349.774 1385.07,-352.766"/>
<polygon fill="blue" stroke="blue" points="1385.36,-356.272 1395.42,-352.97 1385.5,-349.273 1385.36,-356.272"/>
<text text-anchor="middle" x="1129" y="-380.61" font-family="Times,serif" font-size="10.00">uomoprofile:has_stats</text>
</g>
<!-- http://uomodhdk.github.io/Ontology/uomoprofile.owl#Public -->
<g id="node19" class="node"><title>http://uomodhdk.github.io/Ontology/uomoprofile.owl#Public</title>
<g id="a_node19"><a xlink:href="http://uomodhdk.github.io/Ontology/uomoprofile.owl#Public" xlink:title="http://uomodhdk.github.io/Ontology/uomoprofile.owl#Public">
<polygon fill="none" stroke="black" points="1817,-305.11 1373,-305.11 1373,-286.11 1817,-286.11 1817,-305.11"/>
<text text-anchor="middle" x="1595" y="-293.11" font-family="Times,serif" font-size="10.00" fill="blue">http://uomodhdk.github.io/Ontology/uomoprofile.owl#Public</text>
</a>
</g>
</g>
<!-- https://www.pinterest.it/DemetraHanna/&#45;&gt;http://uomodhdk.github.io/Ontology/uomoprofile.owl#Public -->
<g id="edge21" class="edge"><title>https://www.pinterest.it/DemetraHanna/&#45;&gt;http://uomodhdk.github.io/Ontology/uomoprofile.owl#Public</title>
<path fill="none" stroke="blue" d="M953.21,-516.267C968.672,-510.06 982.789,-501.156 994,-488.61 1021.74,-457.569 974.859,-330.321 1005,-301.61 1034.65,-273.37 1257.7,-278.114 1420.58,-285.626"/>
<polygon fill="blue" stroke="blue" points="1420.58,-289.13 1430.73,-286.101 1420.9,-282.137 1420.58,-289.13"/>
<text text-anchor="middle" x="1129" y="-304.61" font-family="Times,serif" font-size="10.00">uomoprofile:has_privacy</text>
</g>
<!-- https://www.pinterest.it/DemetraHanna/ActualPlace -->
<g id="node20" class="node"><title>https://www.pinterest.it/DemetraHanna/ActualPlace</title>
<g id="a_node20"><a xlink:href="https://www.pinterest.it/DemetraHanna/ActualPlace" xlink:title="uomoprofile:Actual_Place:\nhttps://www.pinterest.it/DemetraHanna/ActualPlace">
<polygon fill="none" stroke="black" points="1787,-263.61 1403,-263.61 1403,-233.61 1787,-233.61 1787,-263.61"/>
<text text-anchor="middle" x="1595" y="-251.61" font-family="Times,serif" font-size="10.00" fill="blue">uomoprofile:Actual_Place:</text>
<text text-anchor="middle" x="1595" y="-240.61" font-family="Times,serif" font-size="10.00" fill="blue">https://www.pinterest.it/DemetraHanna/ActualPlace</text>
</a>
</g>
</g>
<!-- https://www.pinterest.it/DemetraHanna/&#45;&gt;https://www.pinterest.it/DemetraHanna/ActualPlace -->
<g id="edge24" class="edge"><title>https://www.pinterest.it/DemetraHanna/&#45;&gt;https://www.pinterest.it/DemetraHanna/ActualPlace</title>
<path fill="none" stroke="blue" d="M953.329,-516.372C968.77,-510.148 982.85,-501.21 994,-488.61 1010.51,-469.948 987.188,-282.036 1005,-264.61 1032.64,-237.572 1233.04,-236.889 1392.53,-240.862"/>
<polygon fill="blue" stroke="blue" points="1392.88,-244.372 1402.97,-241.13 1393.06,-237.374 1392.88,-244.372"/>
<text text-anchor="middle" x="1129" y="-267.61" font-family="Times,serif" font-size="10.00">uomoprofile:has_biographical_info</text>
</g>
<!-- https://www.pinterest.it/DemetraHanna/tried -->
<g id="node22" class="node"><title>https://www.pinterest.it/DemetraHanna/tried</title>
<g id="a_node22"><a xlink:href="https://www.pinterest.it/DemetraHanna/tried" xlink:title="uomoprofile:Content_Container:\nhttps://www.pinterest.it/DemetraHanna/tried">
<polygon fill="none" stroke="black" points="1764.5,-211.61 1425.5,-211.61 1425.5,-181.61 1764.5,-181.61 1764.5,-211.61"/>
<text text-anchor="middle" x="1595" y="-199.61" font-family="Times,serif" font-size="10.00" fill="blue">uomoprofile:Content_Container:</text>
<text text-anchor="middle" x="1595" y="-188.61" font-family="Times,serif" font-size="10.00" fill="blue">https://www.pinterest.it/DemetraHanna/tried</text>
</a>
</g>
</g>
<!-- https://www.pinterest.it/DemetraHanna/&#45;&gt;https://www.pinterest.it/DemetraHanna/tried -->
<g id="edge16" class="edge"><title>https://www.pinterest.it/DemetraHanna/&#45;&gt;https://www.pinterest.it/DemetraHanna/tried</title>
<path fill="none" stroke="blue" d="M953.421,-516.454C968.847,-510.215 982.898,-501.252 994,-488.61 1013.45,-466.466 984.207,-244.493 1005,-223.61 1033.61,-194.878 1252.4,-191.368 1415.02,-192.866"/>
<polygon fill="blue" stroke="blue" points="1415.12,-196.367 1425.15,-192.966 1415.19,-189.367 1415.12,-196.367"/>
<text text-anchor="middle" x="1129" y="-226.61" font-family="Times,serif" font-size="10.00">uomoprofile:has_container</text>
</g>
<!-- &quot;Researcher, where I am the research myself.&quot; -->
<g id="node23" class="node"><title>&quot;Researcher, where I am the research myself.&quot;</title>
<text text-anchor="middle" x="1595" y="-139.11" font-family="Times,serif" font-size="10.00">&quot;Researcher, where I am the research myself.&quot;^^http://www.w3.org/2001/XMLSchema#string</text>
</g>
<!-- https://www.pinterest.it/DemetraHanna/&#45;&gt;&quot;Researcher, where I am the research myself.&quot; -->
<g id="edge17" class="edge"><title>https://www.pinterest.it/DemetraHanna/&#45;&gt;&quot;Researcher, where I am the research myself.&quot;</title>
<path fill="none" stroke="blue" d="M953.062,-516.731C968.651,-510.469 982.84,-501.426 994,-488.61 1018.24,-460.774 978.802,-182.608 1005,-156.61 1024.77,-136.986 1134.38,-131.348 1253.78,-131.345"/>
<polygon fill="blue" stroke="blue" points="1253.86,-134.845 1263.87,-131.358 1253.87,-127.845 1253.86,-134.845"/>
<text text-anchor="middle" x="1129" y="-159.61" font-family="Times,serif" font-size="10.00">uomoprofile:bio</text>
</g>
<!-- &quot;https://www.pinterest.it/DemetraHanna/&quot; -->
<g id="node24" class="node"><title>&quot;https://www.pinterest.it/DemetraHanna/&quot;</title>
<text text-anchor="middle" x="1595" y="-81.1095" font-family="Times,serif" font-size="10.00">&quot;https://www.pinterest.it/DemetraHanna/&quot;^^http://www.w3.org/2001/XMLSchema#anyURI</text>
</g>
<!-- https://www.pinterest.it/DemetraHanna/&#45;&gt;&quot;https://www.pinterest.it/DemetraHanna/&quot; -->
<g id="edge19" class="edge"><title>https://www.pinterest.it/DemetraHanna/&#45;&gt;&quot;https://www.pinterest.it/DemetraHanna/&quot;</title>
<path fill="none" stroke="blue" d="M953.107,-516.77C968.689,-510.502 982.864,-501.446 994,-488.61 1021.17,-457.291 976.047,-145.289 1005,-115.61 1142.89,25.7445 1407.23,-27.6923 1529.29,-62.6718"/>
<polygon fill="blue" stroke="blue" points="1528.67,-66.1341 1539.25,-65.5734 1530.63,-59.414 1528.67,-66.1341"/>
<text text-anchor="middle" x="1129" y="-118.61" font-family="Times,serif" font-size="10.00">uomoprofile:uri</text>
</g>
<!-- https://www.pinterest.it/DemetraHanna/boards -->
<g id="node25" class="node"><title>https://www.pinterest.it/DemetraHanna/boards</title>
<g id="a_node25"><a xlink:href="https://www.pinterest.it/DemetraHanna/boards" xlink:title="uomoprofile:Content_Container:\nhttps://www.pinterest.it/DemetraHanna/boards">
<polygon fill="none" stroke="black" points="347,-430.61 2.84217e-14,-430.61 2.84217e-14,-400.61 347,-400.61 347,-430.61"/>
<text text-anchor="middle" x="173.5" y="-418.61" font-family="Times,serif" font-size="10.00" fill="blue">uomoprofile:Content_Container:</text>
<text text-anchor="middle" x="173.5" y="-407.61" font-family="Times,serif" font-size="10.00" fill="blue">https://www.pinterest.it/DemetraHanna/boards</text>
</a>
</g>
</g>
<!-- https://www.pinterest.it/DemetraHanna/&#45;&gt;https://www.pinterest.it/DemetraHanna/boards -->
<g id="edge26" class="edge"><title>https://www.pinterest.it/DemetraHanna/&#45;&gt;https://www.pinterest.it/DemetraHanna/boards</title>
<path fill="none" stroke="blue" d="M704.249,-506.602C670.928,-501.604 633.357,-496.155 599,-491.61 492.1,-477.465 463.977,-483.525 358,-463.61 316.142,-455.743 269.739,-443.573 234.07,-433.456"/>
<polygon fill="blue" stroke="blue" points="234.883,-430.048 224.306,-430.662 232.957,-436.778 234.883,-430.048"/>
<text text-anchor="middle" x="478.5" y="-494.61" font-family="Times,serif" font-size="10.00">uomoprofile:has_container</text>
</g>
<!-- https://www.pinterest.it/DemetraHanna/nickname -->
<g id="node6" class="node"><title>https://www.pinterest.it/DemetraHanna/nickname</title>
<g id="a_node6"><a xlink:href="https://www.pinterest.it/DemetraHanna/nickname" xlink:title="uomoprofile:Nickname:\nhttps://www.pinterest.it/DemetraHanna/nickname">
<polygon fill="none" stroke="black" points="2603.5,-809.61 2241.5,-809.61 2241.5,-779.61 2603.5,-779.61 2603.5,-809.61"/>
<text text-anchor="middle" x="2422.5" y="-797.61" font-family="Times,serif" font-size="10.00" fill="blue">uomoprofile:Nickname:</text>
<text text-anchor="middle" x="2422.5" y="-786.61" font-family="Times,serif" font-size="10.00" fill="blue">https://www.pinterest.it/DemetraHanna/nickname</text>
</a>
</g>
</g>
<!-- https://www.pinterest.it/DemetraHanna/nickname&#45;&gt;https://www.pinterest.it/DemetraHanna/user -->
<g id="edge3" class="edge"><title>https://www.pinterest.it/DemetraHanna/nickname&#45;&gt;https://www.pinterest.it/DemetraHanna/user</title>
<path fill="none" stroke="blue" d="M2241.5,-783.805C2205.57,-782.056 2168.1,-780.521 2133,-779.61 2045.92,-777.347 2024.02,-775.662 1937,-779.61 1872.31,-782.544 1800.93,-788.594 1740.26,-794.577"/>
<polygon fill="blue" stroke="blue" points="1739.84,-791.102 1730.23,-795.576 1740.53,-798.068 1739.84,-791.102"/>
<text text-anchor="middle" x="2035" y="-782.61" font-family="Times,serif" font-size="10.00">uomoprofile:is_nickname_of</text>
</g>
<!-- &quot;DemetraHanna&quot; -->
<g id="node8" class="node"><title>&quot;DemetraHanna&quot;</title>
<text text-anchor="middle" x="3024.5" y="-792.11" font-family="Times,serif" font-size="10.00">&quot;DemetraHanna&quot;^^http://www.w3.org/2000/01/rdf&#45;schema#Literal</text>
</g>
<!-- https://www.pinterest.it/DemetraHanna/nickname&#45;&gt;&quot;DemetraHanna&quot; -->
<g id="edge4" class="edge"><title>https://www.pinterest.it/DemetraHanna/nickname&#45;&gt;&quot;DemetraHanna&quot;</title>
<path fill="none" stroke="blue" d="M2603.52,-794.61C2659.15,-794.61 2721.38,-794.61 2780.54,-794.61"/>
<polygon fill="blue" stroke="blue" points="2780.77,-798.11 2790.77,-794.61 2780.77,-791.11 2780.77,-798.11"/>
<text text-anchor="middle" x="2746" y="-797.61" font-family="Times,serif" font-size="10.00">foaf:nick</text>
</g>
<!-- https://www.pinterest.it/DemetraHanna/user&#45;&gt;https://www.pinterest.it/DemetraHanna/ -->
<g id="edge30" class="edge"><title>https://www.pinterest.it/DemetraHanna/user&#45;&gt;https://www.pinterest.it/DemetraHanna/</title>
<path fill="none" stroke="blue" d="M1428.75,-798.395C1257.83,-785.535 1014.43,-766.483 1005,-761.61 909.526,-712.258 841.211,-596.375 814.918,-545.862"/>
<polygon fill="blue" stroke="blue" points="817.889,-543.984 810.224,-536.67 811.655,-547.168 817.889,-543.984"/>
<text text-anchor="middle" x="1129" y="-788.61" font-family="Times,serif" font-size="10.00">uomoprofile:creates</text>
</g>
<!-- https://www.pinterest.it/DemetraHanna/user&#45;&gt;https://www.pinterest.it/DemetraHanna/nickname -->
<g id="edge31" class="edge"><title>https://www.pinterest.it/DemetraHanna/user&#45;&gt;https://www.pinterest.it/DemetraHanna/nickname</title>
<path fill="none" stroke="blue" d="M1761.07,-807.41C1896.73,-804.781 2089.04,-801.053 2231.18,-798.298"/>
<polygon fill="blue" stroke="blue" points="2231.39,-801.795 2241.32,-798.102 2231.26,-794.796 2231.39,-801.795"/>
<text text-anchor="middle" x="2035" y="-807.61" font-family="Times,serif" font-size="10.00">uomoprofile:has_nickname</text>
</g>
<!-- https://www.pinterest.it/DemetraHanna/topics&#45;&gt;https://www.pinterest.it/DemetraHanna/ -->
<g id="edge5" class="edge"><title>https://www.pinterest.it/DemetraHanna/topics&#45;&gt;https://www.pinterest.it/DemetraHanna/</title>
<path fill="none" stroke="blue" d="M1421.48,-721.669C1261.63,-712.553 1042.98,-697.651 1005,-682.61 927.474,-651.903 856.003,-580.868 822.688,-544.286"/>
<polygon fill="blue" stroke="blue" points="825.083,-541.714 815.798,-536.61 819.873,-546.39 825.083,-541.714"/>
<text text-anchor="middle" x="1129" y="-713.61" font-family="Times,serif" font-size="10.00">uomoprofile:is_container_of</text>
</g>
<!-- https://www.pinterest.it/DemetraHanna/pins&#45;&gt;https://www.pinterest.it/DemetraHanna/ -->
<g id="edge6" class="edge"><title>https://www.pinterest.it/DemetraHanna/pins&#45;&gt;https://www.pinterest.it/DemetraHanna/</title>
<path fill="none" stroke="blue" d="M1428.84,-645.441C1283.27,-636.369 1082.63,-621.171 1005,-602.61 945.974,-588.496 881.496,-560.205 841.644,-541.084"/>
<polygon fill="blue" stroke="blue" points="843.075,-537.888 832.55,-536.674 840.021,-544.187 843.075,-537.888"/>
<text text-anchor="middle" x="1129" y="-636.61" font-family="Times,serif" font-size="10.00">uomoprofile:is_container_of</text>
</g>
<!-- https://www.pinterest.it/DemetraHanna/following&#45;&gt;https://www.pinterest.it/DemetraHanna/ -->
<g id="edge7" class="edge"><title>https://www.pinterest.it/DemetraHanna/following&#45;&gt;https://www.pinterest.it/DemetraHanna/</title>
<path fill="none" stroke="blue" d="M1410.33,-565.374C1274.97,-555.62 1092.65,-542.482 963.186,-533.153"/>
<polygon fill="blue" stroke="blue" points="963.402,-529.659 953.177,-532.431 962.899,-536.641 963.402,-529.659"/>
<text text-anchor="middle" x="1129" y="-556.61" font-family="Times,serif" font-size="10.00">uomoprofile:is_container_of</text>
</g>
<!-- uomoprofile:Algortihmic_Order_Normal -->
<g id="node12" class="node"><title>uomoprofile:Algortihmic_Order_Normal</title>
<g id="a_node12"><a xlink:href="uomoprofile:Algortihmic_Order_Normal" xlink:title="uomoprofile:Algortihmic_Order_Normal">
<polygon fill="none" stroke="black" points="945.5,-425.11 658.5,-425.11 658.5,-406.11 945.5,-406.11 945.5,-425.11"/>
<text text-anchor="middle" x="802" y="-413.11" font-family="Times,serif" font-size="10.00" fill="blue">uomoprofile:Algortihmic_Order_Normal</text>
</a>
</g>
</g>
<!-- https://www.pinterest.it/DemetraHanna/followers&#45;&gt;https://www.pinterest.it/DemetraHanna/ -->
<g id="edge8" class="edge"><title>https://www.pinterest.it/DemetraHanna/followers&#45;&gt;https://www.pinterest.it/DemetraHanna/</title>
<path fill="none" stroke="blue" d="M1512.37,-487.578C1397.61,-469.234 1182.73,-445.111 1005,-483.61 999.751,-484.746 999.132,-487.028 994,-488.61 973.084,-495.053 950.467,-500.353 928.364,-504.674"/>
<polygon fill="blue" stroke="blue" points="927.426,-501.289 918.253,-506.591 928.73,-508.167 927.426,-501.289"/>
<text text-anchor="middle" x="1129" y="-486.61" font-family="Times,serif" font-size="10.00">uomoprofile:is_container_of</text>
</g>
<!-- https://www.pinterest.it/DemetraHanna/numoffollowing&#45;&gt;https://www.pinterest.it/DemetraHanna/ -->
<g id="edge9" class="edge"><title>https://www.pinterest.it/DemetraHanna/numoffollowing&#45;&gt;https://www.pinterest.it/DemetraHanna/</title>
<path fill="none" stroke="blue" d="M1459.98,-416.604C1296.72,-399.782 1038.41,-378.43 1005,-407.61 977.637,-431.508 1019.22,-462.46 994,-488.61 984.968,-497.974 974.307,-505.263 962.715,-510.889"/>
<polygon fill="blue" stroke="blue" points="960.982,-507.827 953.233,-515.053 963.796,-514.237 960.982,-507.827"/>
<text text-anchor="middle" x="1129" y="-410.61" font-family="Times,serif" font-size="10.00">uomoprofile:is_a_stat_of</text>
</g>
<!-- &quot;24&quot; -->
<g id="node15" class="node"><title>&quot;24&quot;</title>
<text text-anchor="middle" x="2422.5" y="-429.11" font-family="Times,serif" font-size="10.00">&quot;24&quot;^^http://www.w3.org/2001/XMLSchema#nonNegativeInteger</text>
</g>
<!-- https://www.pinterest.it/DemetraHanna/numoffollowing&#45;&gt;&quot;24&quot; -->
<g id="edge10" class="edge"><title>https://www.pinterest.it/DemetraHanna/numoffollowing&#45;&gt;&quot;24&quot;</title>
<path fill="none" stroke="blue" d="M1798.73,-431.61C1917.13,-431.61 2066.97,-431.61 2189.99,-431.61"/>
<polygon fill="blue" stroke="blue" points="2190.3,-435.11 2200.3,-431.61 2190.3,-428.11 2190.3,-435.11"/>
<text text-anchor="middle" x="2035" y="-434.61" font-family="Times,serif" font-size="10.00">uomoprofile:value</text>
</g>
<!-- https://www.pinterest.it/DemetraHanna/numoffollower&#45;&gt;https://www.pinterest.it/DemetraHanna/ -->
<g id="edge11" class="edge"><title>https://www.pinterest.it/DemetraHanna/numoffollower&#45;&gt;https://www.pinterest.it/DemetraHanna/</title>
<path fill="none" stroke="blue" d="M1471.19,-344.587C1308.54,-326.071 1038.23,-300.63 1005,-331.61 979.42,-355.46 1017.45,-462.66 994,-488.61 985.011,-498.557 974.193,-506.208 962.333,-512.036"/>
<polygon fill="blue" stroke="blue" points="960.795,-508.889 953.074,-516.145 963.634,-515.287 960.795,-508.889"/>
<text text-anchor="middle" x="1129" y="-334.61" font-family="Times,serif" font-size="10.00">uomoprofile:is_a_stat_of</text>
</g>
<!-- &quot;137&quot; -->
<g id="node17" class="node"><title>&quot;137&quot;</title>
<text text-anchor="middle" x="2422.5" y="-357.11" font-family="Times,serif" font-size="10.00">&quot;137&quot;^^http://www.w3.org/2001/XMLSchema#nonNegativeInteger</text>
</g>
<!-- https://www.pinterest.it/DemetraHanna/numoffollower&#45;&gt;&quot;137&quot; -->
<g id="edge12" class="edge"><title>https://www.pinterest.it/DemetraHanna/numoffollower&#45;&gt;&quot;137&quot;</title>
<path fill="none" stroke="blue" d="M1794.52,-359.61C1912.26,-359.61 2062.18,-359.61 2185.9,-359.61"/>
<polygon fill="blue" stroke="blue" points="2186.27,-363.11 2196.27,-359.61 2186.27,-356.11 2186.27,-363.11"/>
<text text-anchor="middle" x="2035" y="-362.61" font-family="Times,serif" font-size="10.00">uomoprofile:value</text>
</g>
<!-- https://www.pinterest.it/DemetraHanna/dhdk -->
<g id="node18" class="node"><title>https://www.pinterest.it/DemetraHanna/dhdk</title>
<g id="a_node18"><a xlink:href="https://www.pinterest.it/DemetraHanna/dhdk" xlink:title="uomoprofile:Content_Container:\nhttps://www.pinterest.it/DemetraHanna/dhdk">
<polygon fill="none" stroke="black" points="968,-383.61 636,-383.61 636,-353.61 968,-353.61 968,-383.61"/>
<text text-anchor="middle" x="802" y="-371.61" font-family="Times,serif" font-size="10.00" fill="blue">uomoprofile:Content_Container:</text>
<text text-anchor="middle" x="802" y="-360.61" font-family="Times,serif" font-size="10.00" fill="blue">https://www.pinterest.it/DemetraHanna/dhdk</text>
</a>
</g>
</g>
<!-- &quot;Bologna&quot; -->
<g id="node21" class="node"><title>&quot;Bologna&quot;</title>
<text text-anchor="middle" x="2422.5" y="-246.11" font-family="Times,serif" font-size="10.00">&quot;Bologna&quot;^^http://www.w3.org/2001/XMLSchema#string</text>
</g>
<!-- https://www.pinterest.it/DemetraHanna/ActualPlace&#45;&gt;&quot;Bologna&quot; -->
<g id="edge13" class="edge"><title>https://www.pinterest.it/DemetraHanna/ActualPlace&#45;&gt;&quot;Bologna&quot;</title>
<path fill="none" stroke="blue" d="M1787.2,-248.61C1915.66,-248.61 2084.8,-248.61 2216.12,-248.61"/>
<polygon fill="blue" stroke="blue" points="2216.3,-252.11 2226.3,-248.61 2216.3,-245.11 2216.3,-252.11"/>
<text text-anchor="middle" x="2035" y="-251.61" font-family="Times,serif" font-size="10.00">uomoprofile:value</text>
</g>
<!-- https://www.pinterest.it/DemetraHanna/tried&#45;&gt;https://www.pinterest.it/DemetraHanna/ -->
<g id="edge14" class="edge"><title>https://www.pinterest.it/DemetraHanna/tried&#45;&gt;https://www.pinterest.it/DemetraHanna/</title>
<path fill="none" stroke="blue" d="M1425.15,-185.891C1256.49,-176.069 1020.06,-165.08 1005,-179.61 980.279,-203.466 1016.59,-462.728 994,-488.61 985.095,-498.811 974.269,-506.621 962.348,-512.539"/>
<polygon fill="blue" stroke="blue" points="960.732,-509.428 953.031,-516.704 963.589,-515.818 960.732,-509.428"/>
<text text-anchor="middle" x="1129" y="-182.61" font-family="Times,serif" font-size="10.00">uomoprofile:is_container_of</text>
</g>
<!-- https://www.pinterest.it/DemetraHanna/boards&#45;&gt;https://www.pinterest.it/DemetraHanna/34 -->
<g id="edge36" class="edge"><title>https://www.pinterest.it/DemetraHanna/boards&#45;&gt;https://www.pinterest.it/DemetraHanna/34</title>
<path fill="none" stroke="blue" d="M347.352,-428.577C436.544,-435.268 544.884,-443.396 633.318,-450.03"/>
<polygon fill="blue" stroke="blue" points="633.218,-453.532 643.452,-450.79 633.742,-446.552 633.218,-453.532"/>
<text text-anchor="middle" x="478.5" y="-450.61" font-family="Times,serif" font-size="10.00">uomoprofile:contains</text>
</g>
<!-- https://www.pinterest.it/DemetraHanna/boards&#45;&gt;https://www.pinterest.it/DemetraHanna/ -->
<g id="edge32" class="edge"><title>https://www.pinterest.it/DemetraHanna/boards&#45;&gt;https://www.pinterest.it/DemetraHanna/</title>
<path fill="none" stroke="blue" d="M197.943,-430.734C231.731,-451.605 296.8,-488.38 358,-503.61 449.879,-526.473 555.739,-531.521 640.933,-530.595"/>
<polygon fill="blue" stroke="blue" points="641.002,-534.094 650.953,-530.458 640.906,-527.095 641.002,-534.094"/>
<text text-anchor="middle" x="478.5" y="-533.61" font-family="Times,serif" font-size="10.00">uomoprofile:is_container_of</text>
</g>
<!-- https://www.pinterest.it/DemetraHanna/boards&#45;&gt;uomoprofile:Algortihmic_Order_Normal -->
<g id="edge33" class="edge"><title>https://www.pinterest.it/DemetraHanna/boards&#45;&gt;uomoprofile:Algortihmic_Order_Normal</title>
<path fill="none" stroke="blue" d="M347.352,-415.61C441.61,-415.61 557.251,-415.61 648.185,-415.61"/>
<polygon fill="blue" stroke="blue" points="648.305,-419.11 658.305,-415.61 648.305,-412.11 648.305,-419.11"/>
<text text-anchor="middle" x="478.5" y="-418.61" font-family="Times,serif" font-size="10.00">uomoprofile:has_displaying_order</text>
</g>
<!-- https://www.pinterest.it/DemetraHanna/boards&#45;&gt;https://www.pinterest.it/DemetraHanna/dhdk -->
<g id="edge37" class="edge"><title>https://www.pinterest.it/DemetraHanna/boards&#45;&gt;https://www.pinterest.it/DemetraHanna/dhdk</title>
<path fill="none" stroke="blue" d="M345.426,-400.609C349.659,-400.269 353.856,-399.935 358,-399.61 446.082,-392.688 544.077,-385.751 625.459,-380.2"/>
<polygon fill="blue" stroke="blue" points="626.069,-383.667 635.808,-379.495 625.594,-376.683 626.069,-383.667"/>
<text text-anchor="middle" x="478.5" y="-402.61" font-family="Times,serif" font-size="10.00">uomoprofile:contains</text>
</g>
<!-- https://www.pinterest.it/DemetraHanna/frutta -->
<g id="node26" class="node"><title>https://www.pinterest.it/DemetraHanna/frutta</title>
<g id="a_node26"><a xlink:href="https://www.pinterest.it/DemetraHanna/frutta" xlink:title="uomoprofile:Content_Container:\nhttps://www.pinterest.it/DemetraHanna/frutta">
<polygon fill="none" stroke="black" points="975.5,-331.61 628.5,-331.61 628.5,-301.61 975.5,-301.61 975.5,-331.61"/>
<text text-anchor="middle" x="802" y="-319.61" font-family="Times,serif" font-size="10.00" fill="blue">uomoprofile:Content_Container:</text>
<text text-anchor="middle" x="802" y="-308.61" font-family="Times,serif" font-size="10.00" fill="blue">https://www.pinterest.it/DemetraHanna/frutta</text>
</a>
</g>
</g>
<!-- https://www.pinterest.it/DemetraHanna/boards&#45;&gt;https://www.pinterest.it/DemetraHanna/frutta -->
<g id="edge35" class="edge"><title>https://www.pinterest.it/DemetraHanna/boards&#45;&gt;https://www.pinterest.it/DemetraHanna/frutta</title>
<path fill="none" stroke="blue" d="M223.113,-400.511C259.839,-389.624 311.666,-375.36 358,-366.61 442.877,-350.579 537.942,-339.023 618.181,-331.087"/>
<polygon fill="blue" stroke="blue" points="618.781,-334.545 628.393,-330.088 618.1,-327.578 618.781,-334.545"/>
<text text-anchor="middle" x="478.5" y="-369.61" font-family="Times,serif" font-size="10.00">uomoprofile:contains</text>
</g>
<!-- https://www.pinterest.it/DemetraHanna/burrosalvia -->
<g id="node27" class="node"><title>https://www.pinterest.it/DemetraHanna/burrosalvia</title>
<g id="a_node27"><a xlink:href="https://www.pinterest.it/DemetraHanna/burrosalvia" xlink:title="uomoprofile:Content_Container:\nhttps://www.pinterest.it/DemetraHanna/burrosalvia">
<polygon fill="none" stroke="black" points="994,-279.61 610,-279.61 610,-249.61 994,-249.61 994,-279.61"/>
<text text-anchor="middle" x="802" y="-267.61" font-family="Times,serif" font-size="10.00" fill="blue">uomoprofile:Content_Container:</text>
<text text-anchor="middle" x="802" y="-256.61" font-family="Times,serif" font-size="10.00" fill="blue">https://www.pinterest.it/DemetraHanna/burrosalvia</text>
</a>
</g>
</g>
<!-- https://www.pinterest.it/DemetraHanna/boards&#45;&gt;https://www.pinterest.it/DemetraHanna/burrosalvia -->
<g id="edge34" class="edge"><title>https://www.pinterest.it/DemetraHanna/boards&#45;&gt;https://www.pinterest.it/DemetraHanna/burrosalvia</title>
<path fill="none" stroke="blue" d="M196.19,-400.539C229.368,-378.32 295.47,-337.281 358,-317.61 434.989,-293.389 522.695,-280.104 599.64,-272.866"/>
<polygon fill="blue" stroke="blue" points="600.296,-276.321 609.937,-271.927 599.661,-269.35 600.296,-276.321"/>
<text text-anchor="middle" x="478.5" y="-320.61" font-family="Times,serif" font-size="10.00">uomoprofile:contains</text>
</g>
</g>
</svg>
