<?xml version="1.0" encoding="UTF-8" standalone="no"?>
<!DOCTYPE svg PUBLIC "-//W3C//DTD SVG 1.1//EN"
 "http://www.w3.org/Graphics/SVG/1.1/DTD/svg11.dtd">
<!-- Generated by graphviz version 2.38.0 (20140413.2041)
 -->
<!-- Title: d1e628 Pages: 1 -->
<svg width="2805pt" height="1111pt"
 viewBox="0.00 0.00 2805.00 1110.92" xmlns="http://www.w3.org/2000/svg" xmlns:xlink="http://www.w3.org/1999/xlink">
<g id="graph0" class="graph" transform="scale(1 1) rotate(0) translate(4 1106.92)">
<title>d1e628</title>
<polygon fill="white" stroke="none" points="-4,4 -4,-1106.92 2801,-1106.92 2801,4 -4,4"/>
<text text-anchor="middle" x="1398.5" y="-7.8" font-family="Times,serif" font-size="14.00">Powered by http://rhizomik.net</text>
<!-- http://uomodhdk.github.io/Ontology/uomoprofile.owl#Popularity_Order_Normal -->
<g id="node1" class="node"><title>http://uomodhdk.github.io/Ontology/uomoprofile.owl#Popularity_Order_Normal</title>
<g id="a_node1"><a xlink:href="http://uomodhdk.github.io/Ontology/uomoprofile.owl#Popularity_Order_Normal" xlink:title="http://uomodhdk.github.io/Ontology/uomoprofile.owl#Popularity_Order_Normal">
<polygon fill="none" stroke="black" points="2237,-884.418 1665,-884.418 1665,-865.418 2237,-865.418 2237,-884.418"/>
<text text-anchor="middle" x="1951" y="-872.418" font-family="Times,serif" font-size="10.00" fill="blue">http://uomodhdk.github.io/Ontology/uomoprofile.owl#Popularity_Order_Normal</text>
</a>
</g>
</g>
<!-- https://www.twitch.tv/demyhanna/chat -->
<g id="node2" class="node"><title>https://www.twitch.tv/demyhanna/chat</title>
<g id="a_node2"><a xlink:href="https://www.twitch.tv/demyhanna/chat" xlink:title="uomoprofile:Chat:\nhttps://www.twitch.tv/demyhanna/chat">
<polygon fill="none" stroke="black" points="1084,-515.918 797,-515.918 797,-485.918 1084,-485.918 1084,-515.918"/>
<text text-anchor="middle" x="940.5" y="-503.918" font-family="Times,serif" font-size="10.00" fill="blue">uomoprofile:Chat:</text>
<text text-anchor="middle" x="940.5" y="-492.918" font-family="Times,serif" font-size="10.00" fill="blue">https://www.twitch.tv/demyhanna/chat</text>
</a>
</g>
</g>
<!-- https://www.twitch.tv/demyhanna -->
<g id="node3" class="node"><title>https://www.twitch.tv/demyhanna</title>
<g id="a_node3"><a xlink:href="https://www.twitch.tv/demyhanna" xlink:title="https://www.twitch.tv/demyhanna">
<polygon fill="none" stroke="black" points="2075.5,-694.418 1826.5,-694.418 1826.5,-675.418 2075.5,-675.418 2075.5,-694.418"/>
<text text-anchor="middle" x="1951" y="-682.418" font-family="Times,serif" font-size="10.00" fill="blue">https://www.twitch.tv/demyhanna</text>
</a>
</g>
</g>
<!-- https://www.twitch.tv/demyhanna/chat&#45;&gt;https://www.twitch.tv/demyhanna -->
<g id="edge1" class="edge"><title>https://www.twitch.tv/demyhanna/chat&#45;&gt;https://www.twitch.tv/demyhanna</title>
<path fill="none" stroke="blue" d="M1084.14,-501.152C1273.13,-502.806 1587.49,-510.742 1628,-544.918 1644.07,-558.473 1624.58,-575.623 1639,-590.918 1684.73,-639.417 1754.51,-663.171 1816.4,-674.69"/>
<polygon fill="blue" stroke="blue" points="1815.8,-678.139 1826.26,-676.436 1817.02,-671.246 1815.8,-678.139"/>
<text text-anchor="middle" x="1496.5" y="-547.918" font-family="Times,serif" font-size="10.00">uomoprofile:is_input_content_box_of</text>
</g>
<!-- &quot;All global&quot; -->
<g id="node4" class="node"><title>&quot;All global&quot;</title>
<text text-anchor="middle" x="1951" y="-492.418" font-family="Times,serif" font-size="10.00">&quot;All global&quot;</text>
</g>
<!-- https://www.twitch.tv/demyhanna/chat&#45;&gt;&quot;All global&quot; -->
<g id="edge2" class="edge"><title>https://www.twitch.tv/demyhanna/chat&#45;&gt;&quot;All global&quot;</title>
<path fill="none" stroke="blue" d="M1084.11,-498.394C1166.25,-497.067 1271.43,-495.58 1365,-494.918 1554.94,-493.572 1779.58,-494.193 1886.84,-494.625"/>
<polygon fill="blue" stroke="blue" points="1887.15,-498.126 1897.16,-494.667 1887.18,-491.126 1887.15,-498.126"/>
<text text-anchor="middle" x="1496.5" y="-497.918" font-family="Times,serif" font-size="10.00">uomoprofile:allowed_emotes</text>
</g>
<!-- https://www.twitch.tv/demyhanna/videos -->
<g id="node5" class="node"><title>https://www.twitch.tv/demyhanna/videos</title>
<g id="a_node5"><a xlink:href="https://www.twitch.tv/demyhanna/videos" xlink:title="uomoprofile:ContentContainer:\nhttps://www.twitch.tv/demyhanna/videos">
<polygon fill="none" stroke="black" points="1091.5,-567.918 789.5,-567.918 789.5,-537.918 1091.5,-537.918 1091.5,-567.918"/>
<text text-anchor="middle" x="940.5" y="-555.918" font-family="Times,serif" font-size="10.00" fill="blue">uomoprofile:ContentContainer:</text>
<text text-anchor="middle" x="940.5" y="-544.918" font-family="Times,serif" font-size="10.00" fill="blue">https://www.twitch.tv/demyhanna/videos</text>
</a>
</g>
</g>
<!-- https://www.twitch.tv/demyhanna/videos&#45;&gt;https://www.twitch.tv/demyhanna -->
<g id="edge4" class="edge"><title>https://www.twitch.tv/demyhanna/videos&#45;&gt;https://www.twitch.tv/demyhanna</title>
<path fill="none" stroke="blue" d="M1091.74,-555.058C1170.31,-558.023 1267.82,-564.602 1354,-578.918 1359,-579.748 1360.03,-580.914 1365,-581.918 1480.59,-605.261 1511.78,-596.943 1628,-616.918 1724.68,-633.534 1836.51,-658.449 1899.69,-673.057"/>
<polygon fill="blue" stroke="blue" points="1899.24,-676.546 1909.78,-675.397 1900.83,-669.727 1899.24,-676.546"/>
<text text-anchor="middle" x="1496.5" y="-619.918" font-family="Times,serif" font-size="10.00">uomoprofile:is_container_of</text>
</g>
<!-- http://uomodhdk.github.io/Ontology/uomoprofile.owl#Chronological_Order_new_to_old -->
<g id="node6" class="node"><title>http://uomodhdk.github.io/Ontology/uomoprofile.owl#Chronological_Order_new_to_old</title>
<g id="a_node6"><a xlink:href="http://uomodhdk.github.io/Ontology/uomoprofile.owl#Chronological_Order_new_to_old" xlink:title="http://uomodhdk.github.io/Ontology/uomoprofile.owl#Chronological_Order_new_to_old">
<polygon fill="none" stroke="black" points="2263,-580.418 1639,-580.418 1639,-561.418 2263,-561.418 2263,-580.418"/>
<text text-anchor="middle" x="1951" y="-568.418" font-family="Times,serif" font-size="10.00" fill="blue">http://uomodhdk.github.io/Ontology/uomoprofile.owl#Chronological_Order_new_to_old</text>
</a>
</g>
</g>
<!-- https://www.twitch.tv/demyhanna/videos&#45;&gt;http://uomodhdk.github.io/Ontology/uomoprofile.owl#Chronological_Order_new_to_old -->
<g id="edge3" class="edge"><title>https://www.twitch.tv/demyhanna/videos&#45;&gt;http://uomodhdk.github.io/Ontology/uomoprofile.owl#Chronological_Order_new_to_old</title>
<path fill="none" stroke="blue" d="M1091.67,-555.598C1232.81,-558.117 1448.68,-561.97 1628.61,-565.181"/>
<polygon fill="blue" stroke="blue" points="1628.72,-568.684 1638.78,-565.363 1628.84,-561.685 1628.72,-568.684"/>
<text text-anchor="middle" x="1496.5" y="-568.918" font-family="Times,serif" font-size="10.00">uomoprofile:has_displaying_order</text>
</g>
<!-- https://www.twitch.tv/demyhanna/videostream -->
<g id="node7" class="node"><title>https://www.twitch.tv/demyhanna/videostream</title>
<g id="a_node7"><a xlink:href="https://www.twitch.tv/demyhanna/videostream" xlink:title="uomoprofile:Highlighted_Media:\nhttps://www.twitch.tv/demyhanna/videostream">
<polygon fill="none" stroke="black" points="1110,-1022.92 771,-1022.92 771,-992.918 1110,-992.918 1110,-1022.92"/>
<text text-anchor="middle" x="940.5" y="-1010.92" font-family="Times,serif" font-size="10.00" fill="blue">uomoprofile:Highlighted_Media:</text>
<text text-anchor="middle" x="940.5" y="-999.918" font-family="Times,serif" font-size="10.00" fill="blue">https://www.twitch.tv/demyhanna/videostream</text>
</a>
</g>
</g>
<!-- https://www.twitch.tv/demyhanna/videostream&#45;&gt;https://www.twitch.tv/demyhanna -->
<g id="edge5" class="edge"><title>https://www.twitch.tv/demyhanna/videostream&#45;&gt;https://www.twitch.tv/demyhanna</title>
<path fill="none" stroke="blue" d="M1110.36,-1006.21C1301.61,-1002.56 1591.57,-991.209 1628,-955.918 1644.38,-940.055 1626.31,-872.859 1639,-853.918 1699.92,-762.98 1826.63,-716.772 1898.08,-697.075"/>
<polygon fill="blue" stroke="blue" points="1899.03,-700.443 1907.78,-694.469 1897.22,-693.682 1899.03,-700.443"/>
<text text-anchor="middle" x="1496.5" y="-998.918" font-family="Times,serif" font-size="10.00">uomoprofile:is_main_media_of</text>
</g>
<!-- &quot;Hello World&quot; -->
<g id="node8" class="node"><title>&quot;Hello World&quot;</title>
<text text-anchor="middle" x="1951" y="-1024.42" font-family="Times,serif" font-size="10.00">&quot;Hello World&quot;</text>
</g>
<!-- https://www.twitch.tv/demyhanna/videostream&#45;&gt;&quot;Hello World&quot; -->
<g id="edge6" class="edge"><title>https://www.twitch.tv/demyhanna/videostream&#45;&gt;&quot;Hello World&quot;</title>
<path fill="none" stroke="blue" d="M1110.02,-1011.09C1336.33,-1015.36 1728.01,-1022.74 1883.55,-1025.67"/>
<polygon fill="blue" stroke="blue" points="1883.83,-1029.17 1893.9,-1025.86 1883.97,-1022.17 1883.83,-1029.17"/>
<text text-anchor="middle" x="1496.5" y="-1022.92" font-family="Times,serif" font-size="10.00">uomoprofile:title</text>
</g>
<!-- &quot;Hearthstone&quot; -->
<g id="node9" class="node"><title>&quot;Hearthstone&quot;</title>
<text text-anchor="middle" x="1951" y="-1082.42" font-family="Times,serif" font-size="10.00">&quot;Hearthstone&quot;</text>
</g>
<!-- https://www.twitch.tv/demyhanna/videostream&#45;&gt;&quot;Hearthstone&quot; -->
<g id="edge7" class="edge"><title>https://www.twitch.tv/demyhanna/videostream&#45;&gt;&quot;Hearthstone&quot;</title>
<path fill="none" stroke="blue" d="M1110.02,-1020.78C1336.33,-1038.06 1728.01,-1067.97 1883.55,-1079.84"/>
<polygon fill="blue" stroke="blue" points="1883.66,-1083.36 1893.9,-1080.63 1884.19,-1076.38 1883.66,-1083.36"/>
<text text-anchor="middle" x="1496.5" y="-1062.92" font-family="Times,serif" font-size="10.00">uomoprofile:category</text>
</g>
<!-- https://www.twitch.tv/demyhanna/clips -->
<g id="node10" class="node"><title>https://www.twitch.tv/demyhanna/clips</title>
<g id="a_node10"><a xlink:href="https://www.twitch.tv/demyhanna/clips" xlink:title="uomoprofile:ContentContainer:\nhttps://www.twitch.tv/demyhanna/clips">
<polygon fill="none" stroke="black" points="1087.5,-879.918 793.5,-879.918 793.5,-849.918 1087.5,-849.918 1087.5,-879.918"/>
<text text-anchor="middle" x="940.5" y="-867.918" font-family="Times,serif" font-size="10.00" fill="blue">uomoprofile:ContentContainer:</text>
<text text-anchor="middle" x="940.5" y="-856.918" font-family="Times,serif" font-size="10.00" fill="blue">https://www.twitch.tv/demyhanna/clips</text>
</a>
</g>
</g>
<!-- https://www.twitch.tv/demyhanna/clips&#45;&gt;http://uomodhdk.github.io/Ontology/uomoprofile.owl#Popularity_Order_Normal -->
<g id="edge8" class="edge"><title>https://www.twitch.tv/demyhanna/clips&#45;&gt;http://uomodhdk.github.io/Ontology/uomoprofile.owl#Popularity_Order_Normal</title>
<path fill="none" stroke="blue" d="M1087.61,-866.366C1235.42,-867.832 1468.08,-870.139 1654.51,-871.988"/>
<polygon fill="blue" stroke="blue" points="1654.72,-875.49 1664.75,-872.089 1654.79,-868.49 1654.72,-875.49"/>
<text text-anchor="middle" x="1496.5" y="-874.918" font-family="Times,serif" font-size="10.00">uomoprofile:has_displaying_order</text>
</g>
<!-- https://www.twitch.tv/demyhanna/clips&#45;&gt;https://www.twitch.tv/demyhanna -->
<g id="edge9" class="edge"><title>https://www.twitch.tv/demyhanna/clips&#45;&gt;https://www.twitch.tv/demyhanna</title>
<path fill="none" stroke="blue" d="M1087.57,-864.404C1227.99,-860.954 1445.26,-847.822 1628,-802.918 1738.45,-775.777 1863.36,-723.436 1919.65,-698.616"/>
<polygon fill="blue" stroke="blue" points="1921.31,-701.71 1929.03,-694.455 1918.47,-695.311 1921.31,-701.71"/>
<text text-anchor="middle" x="1496.5" y="-849.918" font-family="Times,serif" font-size="10.00">uomoprofile:is_container_of</text>
</g>
<!-- https://www.twitch.tv/demyhanna/ -->
<g id="node11" class="node"><title>https://www.twitch.tv/demyhanna/</title>
<g id="a_node11"><a xlink:href="https://www.twitch.tv/demyhanna/" xlink:title="uomoprofile:User_Profile:\nhttps://www.twitch.tv/demyhanna/">
<polygon fill="none" stroke="black" points="257,-592.918 0,-592.918 0,-562.918 257,-562.918 257,-592.918"/>
<text text-anchor="middle" x="128.5" y="-580.918" font-family="Times,serif" font-size="10.00" fill="blue">uomoprofile:User_Profile:</text>
<text text-anchor="middle" x="128.5" y="-569.918" font-family="Times,serif" font-size="10.00" fill="blue">https://www.twitch.tv/demyhanna/</text>
</a>
</g>
</g>
<!-- https://www.twitch.tv/demyhanna/&#45;&gt;https://www.twitch.tv/demyhanna/chat -->
<g id="edge24" class="edge"><title>https://www.twitch.tv/demyhanna/&#45;&gt;https://www.twitch.tv/demyhanna/chat</title>
<path fill="none" stroke="blue" d="M172.273,-562.846C199.353,-553.986 235.306,-543.466 268,-537.918 444.312,-507.997 650.025,-500.635 786.842,-499.548"/>
<polygon fill="blue" stroke="blue" points="787.007,-503.047 796.983,-499.478 786.959,-496.047 787.007,-503.047"/>
<text text-anchor="middle" x="392" y="-540.918" font-family="Times,serif" font-size="10.00">uomoprofile:has_input_content_box</text>
</g>
<!-- https://www.twitch.tv/demyhanna/&#45;&gt;https://www.twitch.tv/demyhanna/videos -->
<g id="edge22" class="edge"><title>https://www.twitch.tv/demyhanna/&#45;&gt;https://www.twitch.tv/demyhanna/videos</title>
<path fill="none" stroke="blue" d="M257.002,-563.658C260.707,-563.388 264.379,-563.14 268,-562.918 442.556,-552.189 643.089,-550.599 779.232,-551.123"/>
<polygon fill="blue" stroke="blue" points="779.316,-554.623 789.33,-551.166 779.345,-547.623 779.316,-554.623"/>
<text text-anchor="middle" x="392" y="-565.918" font-family="Times,serif" font-size="10.00">uomoprofile:has_container</text>
</g>
<!-- https://www.twitch.tv/demyhanna/&#45;&gt;https://www.twitch.tv/demyhanna/videostream -->
<g id="edge23" class="edge"><title>https://www.twitch.tv/demyhanna/&#45;&gt;https://www.twitch.tv/demyhanna/videostream</title>
<path fill="none" stroke="blue" d="M130.048,-593.147C132.985,-649.811 151.54,-849.753 268,-938.918 441.958,-1072.1 719.945,-1047.57 857.255,-1024.64"/>
<polygon fill="blue" stroke="blue" points="858.028,-1028.06 867.296,-1022.92 856.849,-1021.16 858.028,-1028.06"/>
<text text-anchor="middle" x="392" y="-1033.92" font-family="Times,serif" font-size="10.00">uomoprofile:has_main_media</text>
</g>
<!-- https://www.twitch.tv/demyhanna/&#45;&gt;https://www.twitch.tv/demyhanna/clips -->
<g id="edge21" class="edge"><title>https://www.twitch.tv/demyhanna/&#45;&gt;https://www.twitch.tv/demyhanna/clips</title>
<path fill="none" stroke="blue" d="M132.611,-593.221C142.727,-638.533 179.295,-772.308 268,-827.918 310.498,-854.559 598.499,-862.106 783.271,-864.188"/>
<polygon fill="blue" stroke="blue" points="783.325,-867.689 793.362,-864.298 783.401,-860.69 783.325,-867.689"/>
<text text-anchor="middle" x="392" y="-860.918" font-family="Times,serif" font-size="10.00">uomoprofile:has_container</text>
</g>
<!-- http://uomodhdk.github.io/Ontology/uomoprofile.owl#Public -->
<g id="node12" class="node"><title>http://uomodhdk.github.io/Ontology/uomoprofile.owl#Public</title>
<g id="a_node12"><a xlink:href="http://uomodhdk.github.io/Ontology/uomoprofile.owl#Public" xlink:title="http://uomodhdk.github.io/Ontology/uomoprofile.owl#Public">
<polygon fill="none" stroke="black" points="1162.5,-307.418 718.5,-307.418 718.5,-288.418 1162.5,-288.418 1162.5,-307.418"/>
<text text-anchor="middle" x="940.5" y="-295.418" font-family="Times,serif" font-size="10.00" fill="blue">http://uomodhdk.github.io/Ontology/uomoprofile.owl#Public</text>
</a>
</g>
</g>
<!-- https://www.twitch.tv/demyhanna/&#45;&gt;http://uomodhdk.github.io/Ontology/uomoprofile.owl#Public -->
<g id="edge10" class="edge"><title>https://www.twitch.tv/demyhanna/&#45;&gt;http://uomodhdk.github.io/Ontology/uomoprofile.owl#Public</title>
<path fill="none" stroke="blue" d="M134.123,-562.823C147.423,-522.182 189.922,-410.078 268,-358.918 338.67,-312.611 543.15,-299.132 708.065,-296.182"/>
<polygon fill="blue" stroke="blue" points="708.43,-299.676 718.37,-296.01 708.313,-292.677 708.43,-299.676"/>
<text text-anchor="middle" x="392" y="-361.918" font-family="Times,serif" font-size="10.00">uomoprofile:has_privacy</text>
</g>
<!-- https://www.twitch.tv/demyhanna/views -->
<g id="node13" class="node"><title>https://www.twitch.tv/demyhanna/views</title>
<g id="a_node13"><a xlink:href="https://www.twitch.tv/demyhanna/views" xlink:title="uomoprofile:Views:\nhttps://www.twitch.tv/demyhanna/views">
<polygon fill="none" stroke="black" points="1087.5,-931.918 793.5,-931.918 793.5,-901.918 1087.5,-901.918 1087.5,-931.918"/>
<text text-anchor="middle" x="940.5" y="-919.918" font-family="Times,serif" font-size="10.00" fill="blue">uomoprofile:Views:</text>
<text text-anchor="middle" x="940.5" y="-908.918" font-family="Times,serif" font-size="10.00" fill="blue">https://www.twitch.tv/demyhanna/views</text>
</a>
</g>
</g>
<!-- https://www.twitch.tv/demyhanna/&#45;&gt;https://www.twitch.tv/demyhanna/views -->
<g id="edge11" class="edge"><title>https://www.twitch.tv/demyhanna/&#45;&gt;https://www.twitch.tv/demyhanna/views</title>
<path fill="none" stroke="blue" d="M131.269,-592.968C138.048,-643.097 167.278,-805.107 268,-873.918 348.801,-929.119 611.444,-930.485 783.311,-924.837"/>
<polygon fill="blue" stroke="blue" points="783.597,-928.33 793.472,-924.492 783.359,-921.334 783.597,-928.33"/>
<text text-anchor="middle" x="392" y="-925.918" font-family="Times,serif" font-size="10.00">uomoprofile:has_stats</text>
</g>
<!-- https://www.twitch.tv/demyhanna/events -->
<g id="node14" class="node"><title>https://www.twitch.tv/demyhanna/events</title>
<g id="a_node14"><a xlink:href="https://www.twitch.tv/demyhanna/events" xlink:title="uomoprofile:ContentContainer:\nhttps://www.twitch.tv/demyhanna/events">
<polygon fill="none" stroke="black" points="1091.5,-827.918 789.5,-827.918 789.5,-797.918 1091.5,-797.918 1091.5,-827.918"/>
<text text-anchor="middle" x="940.5" y="-815.918" font-family="Times,serif" font-size="10.00" fill="blue">uomoprofile:ContentContainer:</text>
<text text-anchor="middle" x="940.5" y="-804.918" font-family="Times,serif" font-size="10.00" fill="blue">https://www.twitch.tv/demyhanna/events</text>
</a>
</g>
</g>
<!-- https://www.twitch.tv/demyhanna/&#45;&gt;https://www.twitch.tv/demyhanna/events -->
<g id="edge12" class="edge"><title>https://www.twitch.tv/demyhanna/&#45;&gt;https://www.twitch.tv/demyhanna/events</title>
<path fill="none" stroke="blue" d="M134.965,-593.054C149.619,-631.135 193.791,-730.808 268,-771.918 352.645,-818.809 609.039,-822.175 779.387,-818.715"/>
<polygon fill="blue" stroke="blue" points="779.539,-822.213 789.463,-818.501 779.39,-815.215 779.539,-822.213"/>
<text text-anchor="middle" x="392" y="-818.918" font-family="Times,serif" font-size="10.00">uomoprofile:has_container</text>
</g>
<!-- &quot;https://www.twitch.tv/demyhanna&quot; -->
<g id="node15" class="node"><title>&quot;https://www.twitch.tv/demyhanna&quot;</title>
<text text-anchor="middle" x="940.5" y="-245.418" font-family="Times,serif" font-size="10.00">&quot;https://www.twitch.tv/demyhanna&quot;^^http://www.w3.org/2001/XMLSchema#anyURI</text>
</g>
<!-- https://www.twitch.tv/demyhanna/&#45;&gt;&quot;https://www.twitch.tv/demyhanna&quot; -->
<g id="edge13" class="edge"><title>https://www.twitch.tv/demyhanna/&#45;&gt;&quot;https://www.twitch.tv/demyhanna&quot;</title>
<path fill="none" stroke="blue" d="M131.53,-562.617C138.992,-513.167 169.79,-357.04 268,-290.918 329.157,-249.742 493.256,-238.717 643.915,-238.12"/>
<polygon fill="blue" stroke="blue" points="644.285,-241.62 654.277,-238.096 644.269,-234.62 644.285,-241.62"/>
<text text-anchor="middle" x="392" y="-293.918" font-family="Times,serif" font-size="10.00">uomoprofile:uri</text>
</g>
<!-- https://www.twitch.tv/demyhanna/numberoffollwing -->
<g id="node16" class="node"><title>https://www.twitch.tv/demyhanna/numberoffollwing</title>
<g id="a_node16"><a xlink:href="https://www.twitch.tv/demyhanna/numberoffollwing" xlink:title="https://www.twitch.tv/demyhanna/numberoffollwing">
<polygon fill="none" stroke="black" points="1129,-207.418 752,-207.418 752,-188.418 1129,-188.418 1129,-207.418"/>
<text text-anchor="middle" x="940.5" y="-195.418" font-family="Times,serif" font-size="10.00" fill="blue">https://www.twitch.tv/demyhanna/numberoffollwing</text>
</a>
</g>
</g>
<!-- https://www.twitch.tv/demyhanna/&#45;&gt;https://www.twitch.tv/demyhanna/numberoffollwing -->
<g id="edge14" class="edge"><title>https://www.twitch.tv/demyhanna/&#45;&gt;https://www.twitch.tv/demyhanna/numberoffollwing</title>
<path fill="none" stroke="blue" d="M130.041,-562.876C132.951,-506.951 151.424,-309.977 268,-226.918 352.966,-166.379 646.852,-176.263 816.348,-187.726"/>
<polygon fill="blue" stroke="blue" points="816.11,-191.218 826.326,-188.413 816.59,-184.235 816.11,-191.218"/>
<text text-anchor="middle" x="392" y="-229.918" font-family="Times,serif" font-size="10.00">uomoprofile:has_stats</text>
</g>
<!-- &quot;true&quot; -->
<g id="node17" class="node"><title>&quot;true&quot;</title>
<text text-anchor="middle" x="940.5" y="-145.418" font-family="Times,serif" font-size="10.00">&quot;true&quot;^^http://www.w3.org/2001/XMLSchema#boolean</text>
</g>
<!-- https://www.twitch.tv/demyhanna/&#45;&gt;&quot;true&quot; -->
<g id="edge15" class="edge"><title>https://www.twitch.tv/demyhanna/&#45;&gt;&quot;true&quot;</title>
<path fill="none" stroke="blue" d="M129.027,-562.86C128,-500.93 133.268,-264.453 268,-164.918 341.572,-110.565 577.134,-116.442 748.525,-129.143"/>
<polygon fill="blue" stroke="blue" points="748.455,-132.648 758.69,-129.91 748.981,-125.667 748.455,-132.648"/>
<text text-anchor="middle" x="392" y="-167.918" font-family="Times,serif" font-size="10.00">uomoprofile:shareable</text>
</g>
<!-- https://www.twitch.tv/demyhanna/user -->
<g id="node18" class="node"><title>https://www.twitch.tv/demyhanna/user</title>
<g id="a_node18"><a xlink:href="https://www.twitch.tv/demyhanna/user" xlink:title="sioc:UserAccount:\nhttps://www.twitch.tv/demyhanna/user">
<polygon fill="none" stroke="black" points="1084,-359.918 797,-359.918 797,-329.918 1084,-329.918 1084,-359.918"/>
<text text-anchor="middle" x="940.5" y="-347.918" font-family="Times,serif" font-size="10.00" fill="blue">sioc:UserAccount:</text>
<text text-anchor="middle" x="940.5" y="-336.918" font-family="Times,serif" font-size="10.00" fill="blue">https://www.twitch.tv/demyhanna/user</text>
</a>
</g>
</g>
<!-- https://www.twitch.tv/demyhanna/&#45;&gt;https://www.twitch.tv/demyhanna/user -->
<g id="edge16" class="edge"><title>https://www.twitch.tv/demyhanna/&#45;&gt;https://www.twitch.tv/demyhanna/user</title>
<path fill="none" stroke="blue" d="M150.072,-562.824C206.648,-522.329 370.76,-411.6 527,-370.918 610.902,-349.07 707.493,-342.054 786.106,-340.736"/>
<polygon fill="blue" stroke="blue" points="786.632,-344.229 796.583,-340.592 786.536,-337.23 786.632,-344.229"/>
<text text-anchor="middle" x="392" y="-485.918" font-family="Times,serif" font-size="10.00">uomoprofile:created_by</text>
</g>
<!-- https://www.twitch.tv/demyhanna/numberoffollowers -->
<g id="node19" class="node"><title>https://www.twitch.tv/demyhanna/numberoffollowers</title>
<g id="a_node19"><a xlink:href="https://www.twitch.tv/demyhanna/numberoffollowers" xlink:title="https://www.twitch.tv/demyhanna/numberoffollowers">
<polygon fill="none" stroke="black" points="1132.5,-107.418 748.5,-107.418 748.5,-88.4175 1132.5,-88.4175 1132.5,-107.418"/>
<text text-anchor="middle" x="940.5" y="-95.4175" font-family="Times,serif" font-size="10.00" fill="blue">https://www.twitch.tv/demyhanna/numberoffollowers</text>
</a>
</g>
</g>
<!-- https://www.twitch.tv/demyhanna/&#45;&gt;https://www.twitch.tv/demyhanna/numberoffollowers -->
<g id="edge17" class="edge"><title>https://www.twitch.tv/demyhanna/&#45;&gt;https://www.twitch.tv/demyhanna/numberoffollowers</title>
<path fill="none" stroke="blue" d="M131.523,-562.887C141.818,-488.869 190.928,-164.344 268,-105.918 464.636,43.146 795.101,-48.7931 903.716,-85.129"/>
<polygon fill="blue" stroke="blue" points="902.635,-88.4581 913.229,-88.3605 904.887,-81.83 902.635,-88.4581"/>
<text text-anchor="middle" x="392" y="-108.918" font-family="Times,serif" font-size="10.00">uomoprofile:has_stats</text>
</g>
<!-- https://www.twitch.tv/demyhanna/following -->
<g id="node20" class="node"><title>https://www.twitch.tv/demyhanna/following</title>
<g id="a_node20"><a xlink:href="https://www.twitch.tv/demyhanna/following" xlink:title="uomoprofile:Following:\nhttps://www.twitch.tv/demyhanna/following">
<polygon fill="none" stroke="black" points="1102.5,-775.918 778.5,-775.918 778.5,-745.918 1102.5,-745.918 1102.5,-775.918"/>
<text text-anchor="middle" x="940.5" y="-763.918" font-family="Times,serif" font-size="10.00" fill="blue">uomoprofile:Following:</text>
<text text-anchor="middle" x="940.5" y="-752.918" font-family="Times,serif" font-size="10.00" fill="blue">https://www.twitch.tv/demyhanna/following</text>
</a>
</g>
</g>
<!-- https://www.twitch.tv/demyhanna/&#45;&gt;https://www.twitch.tv/demyhanna/following -->
<g id="edge18" class="edge"><title>https://www.twitch.tv/demyhanna/&#45;&gt;https://www.twitch.tv/demyhanna/following</title>
<path fill="none" stroke="blue" d="M139.088,-593.006C158.947,-622.744 207.792,-688.421 268,-715.918 353.905,-755.15 599.077,-762.778 768.118,-763.072"/>
<polygon fill="blue" stroke="blue" points="768.125,-766.572 778.128,-763.081 768.131,-759.572 768.125,-766.572"/>
<text text-anchor="middle" x="392" y="-758.918" font-family="Times,serif" font-size="10.00">uomoprofile:has_container</text>
</g>
<!-- https://static&#45;cdn.jtvnw.net/jtv_user_pictures/c01a9d9d&#45;a00b&#45;4fe5&#45;ae7c&#45;0f640abdb218&#45;profile_image&#45;70x70.jpeg -->
<g id="node21" class="node"><title>https://static&#45;cdn.jtvnw.net/jtv_user_pictures/c01a9d9d&#45;a00b&#45;4fe5&#45;ae7c&#45;0f640abdb218&#45;profile_image&#45;70x70.jpeg</title>
<g id="a_node21"><a xlink:href="https://static-cdn.jtvnw.net/jtv_user_pictures/c01a9d9d-a00b-4fe5-ae7c-0f640abdb218-profile_image-70x70.jpeg" xlink:title="uomoprofile:Profile_Media:\nhttps://static&#45;cdn.jtvnw.net/jtv_user_pictures/c01a9d9d&#45;a00b&#45;4fe5&#45;ae7c&#45;0f640abdb218&#45;profile_image&#45;70x70.jpeg">
<polygon fill="none" stroke="black" points="1354,-723.918 527,-723.918 527,-693.918 1354,-693.918 1354,-723.918"/>
<text text-anchor="middle" x="940.5" y="-711.918" font-family="Times,serif" font-size="10.00" fill="blue">uomoprofile:Profile_Media:</text>
<text text-anchor="middle" x="940.5" y="-700.918" font-family="Times,serif" font-size="10.00" fill="blue">https://static&#45;cdn.jtvnw.net/jtv_user_pictures/c01a9d9d&#45;a00b&#45;4fe5&#45;ae7c&#45;0f640abdb218&#45;profile_image&#45;70x70.jpeg</text>
</a>
</g>
</g>
<!-- https://www.twitch.tv/demyhanna/&#45;&gt;https://static&#45;cdn.jtvnw.net/jtv_user_pictures/c01a9d9d&#45;a00b&#45;4fe5&#45;ae7c&#45;0f640abdb218&#45;profile_image&#45;70x70.jpeg -->
<g id="edge19" class="edge"><title>https://www.twitch.tv/demyhanna/&#45;&gt;https://static&#45;cdn.jtvnw.net/jtv_user_pictures/c01a9d9d&#45;a00b&#45;4fe5&#45;ae7c&#45;0f640abdb218&#45;profile_image&#45;70x70.jpeg</title>
<path fill="none" stroke="blue" d="M151.901,-593.02C178.399,-610.082 224.43,-637.249 268,-650.918 346.802,-675.64 433.195,-691.139 517.002,-700.621"/>
<polygon fill="blue" stroke="blue" points="516.621,-704.1 526.944,-701.719 517.389,-697.142 516.621,-704.1"/>
<text text-anchor="middle" x="392" y="-702.918" font-family="Times,serif" font-size="10.00">uomoprofile:has_main_media</text>
</g>
<!-- https://www.twitch.tv/demyhanna/panels -->
<g id="node22" class="node"><title>https://www.twitch.tv/demyhanna/panels</title>
<g id="a_node22"><a xlink:href="https://www.twitch.tv/demyhanna/panels" xlink:title="uomoprofile:ContentContainer:\nhttps://www.twitch.tv/demyhanna/panels">
<polygon fill="none" stroke="black" points="1091.5,-671.918 789.5,-671.918 789.5,-641.918 1091.5,-641.918 1091.5,-671.918"/>
<text text-anchor="middle" x="940.5" y="-659.918" font-family="Times,serif" font-size="10.00" fill="blue">uomoprofile:ContentContainer:</text>
<text text-anchor="middle" x="940.5" y="-648.918" font-family="Times,serif" font-size="10.00" fill="blue">https://www.twitch.tv/demyhanna/panels</text>
</a>
</g>
</g>
<!-- https://www.twitch.tv/demyhanna/&#45;&gt;https://www.twitch.tv/demyhanna/panels -->
<g id="edge20" class="edge"><title>https://www.twitch.tv/demyhanna/&#45;&gt;https://www.twitch.tv/demyhanna/panels</title>
<path fill="none" stroke="blue" d="M193.7,-592.951C216.995,-597.984 243.586,-603.243 268,-606.918 441.678,-633.06 642.782,-645.739 779.301,-651.753"/>
<polygon fill="blue" stroke="blue" points="779.285,-655.256 789.427,-652.192 779.588,-648.262 779.285,-655.256"/>
<text text-anchor="middle" x="392" y="-637.918" font-family="Times,serif" font-size="10.00">uomoprofile:has_container</text>
</g>
<!-- https://www.twitch.tv/demyhanna/followers -->
<g id="node23" class="node"><title>https://www.twitch.tv/demyhanna/followers</title>
<g id="a_node23"><a xlink:href="https://www.twitch.tv/demyhanna/followers" xlink:title="uomoprofile:Followers:\nhttps://www.twitch.tv/demyhanna/followers">
<polygon fill="none" stroke="black" points="1102.5,-619.918 778.5,-619.918 778.5,-589.918 1102.5,-589.918 1102.5,-619.918"/>
<text text-anchor="middle" x="940.5" y="-607.918" font-family="Times,serif" font-size="10.00" fill="blue">uomoprofile:Followers:</text>
<text text-anchor="middle" x="940.5" y="-596.918" font-family="Times,serif" font-size="10.00" fill="blue">https://www.twitch.tv/demyhanna/followers</text>
</a>
</g>
</g>
<!-- https://www.twitch.tv/demyhanna/&#45;&gt;https://www.twitch.tv/demyhanna/followers -->
<g id="edge25" class="edge"><title>https://www.twitch.tv/demyhanna/&#45;&gt;https://www.twitch.tv/demyhanna/followers</title>
<path fill="none" stroke="blue" d="M257.4,-582.181C395.22,-586.775 615.286,-594.11 768.031,-599.202"/>
<polygon fill="blue" stroke="blue" points="768.341,-602.714 778.452,-599.549 768.574,-595.718 768.341,-602.714"/>
<text text-anchor="middle" x="392" y="-593.918" font-family="Times,serif" font-size="10.00">uomoprofile:has_container</text>
</g>
<!-- https://www.twitch.tv/demyhanna/views&#45;&gt;https://www.twitch.tv/demyhanna -->
<g id="edge31" class="edge"><title>https://www.twitch.tv/demyhanna/views&#45;&gt;https://www.twitch.tv/demyhanna</title>
<path fill="none" stroke="blue" d="M1087.54,-914.719C1282.74,-911.175 1606.8,-902.916 1628,-886.918 1640.34,-877.606 1629.07,-865.768 1639,-853.918 1710.98,-768.008 1838.25,-718.729 1905.5,-697.492"/>
<polygon fill="blue" stroke="blue" points="1906.84,-700.74 1915.36,-694.442 1904.78,-694.052 1906.84,-700.74"/>
<text text-anchor="middle" x="1496.5" y="-910.918" font-family="Times,serif" font-size="10.00">uomoprofile:is_a_stat_of</text>
</g>
<!-- &quot;123&quot; -->
<g id="node28" class="node"><title>&quot;123&quot;</title>
<text text-anchor="middle" x="1951" y="-948.418" font-family="Times,serif" font-size="10.00">&quot;123&quot;^^http://www.w3.org/2001/XMLSchema#nonNegativeInteger</text>
</g>
<!-- https://www.twitch.tv/demyhanna/views&#45;&gt;&quot;123&quot; -->
<g id="edge32" class="edge"><title>https://www.twitch.tv/demyhanna/views&#45;&gt;&quot;123&quot;</title>
<path fill="none" stroke="blue" d="M1087.61,-921.843C1251.79,-927.379 1520.68,-936.444 1714.6,-942.981"/>
<polygon fill="blue" stroke="blue" points="1714.53,-946.481 1724.65,-943.32 1714.77,-939.485 1714.53,-946.481"/>
<text text-anchor="middle" x="1496.5" y="-942.918" font-family="Times,serif" font-size="10.00">uomoprofile:value</text>
</g>
<!-- https://www.twitch.tv/demyhanna/events&#45;&gt;https://www.twitch.tv/demyhanna -->
<g id="edge34" class="edge"><title>https://www.twitch.tv/demyhanna/events&#45;&gt;https://www.twitch.tv/demyhanna</title>
<path fill="none" stroke="blue" d="M1091.67,-806.596C1231.33,-799.111 1444.81,-783.57 1628,-752.918 1725.02,-736.684 1837.18,-711.53 1900.23,-696.796"/>
<polygon fill="blue" stroke="blue" points="1901.36,-700.127 1910.3,-694.435 1899.76,-693.312 1901.36,-700.127"/>
<text text-anchor="middle" x="1496.5" y="-789.918" font-family="Times,serif" font-size="10.00">uomoprofile:is_container_of</text>
</g>
<!-- https://www.twitch.tv/demyhanna/user&#45;&gt;https://www.twitch.tv/demyhanna -->
<g id="edge37" class="edge"><title>https://www.twitch.tv/demyhanna/user&#45;&gt;https://www.twitch.tv/demyhanna</title>
<path fill="none" stroke="blue" d="M1084.17,-352.839C1165.17,-353.113 1267.37,-346.246 1354,-317.918 1359.51,-316.116 1359.44,-312.538 1365,-310.918 1421.11,-294.577 1585.87,-270.41 1628,-310.918 1650.44,-332.497 1619.95,-566.288 1639,-590.918 1680.68,-644.813 1752.26,-668.776 1816.25,-679.054"/>
<polygon fill="blue" stroke="blue" points="1816.04,-682.562 1826.45,-680.589 1817.08,-675.64 1816.04,-682.562"/>
<text text-anchor="middle" x="1496.5" y="-313.918" font-family="Times,serif" font-size="10.00">uomoprofile:creates</text>
</g>
<!-- https://www.twitch.tv/demyhanna/nickname -->
<g id="node29" class="node"><title>https://www.twitch.tv/demyhanna/nickname</title>
<g id="a_node29"><a xlink:href="https://www.twitch.tv/demyhanna/nickname" xlink:title="uomoprofile:Nickname:\nhttps://www.twitch.tv/demyhanna/nickname">
<polygon fill="none" stroke="black" points="2109.5,-262.918 1792.5,-262.918 1792.5,-232.918 2109.5,-232.918 2109.5,-262.918"/>
<text text-anchor="middle" x="1951" y="-250.918" font-family="Times,serif" font-size="10.00" fill="blue">uomoprofile:Nickname:</text>
<text text-anchor="middle" x="1951" y="-239.918" font-family="Times,serif" font-size="10.00" fill="blue">https://www.twitch.tv/demyhanna/nickname</text>
</a>
</g>
</g>
<!-- https://www.twitch.tv/demyhanna/user&#45;&gt;https://www.twitch.tv/demyhanna/nickname -->
<g id="edge38" class="edge"><title>https://www.twitch.tv/demyhanna/user&#45;&gt;https://www.twitch.tv/demyhanna/nickname</title>
<path fill="none" stroke="blue" d="M1084.23,-354.193C1187.75,-357.586 1316,-353.789 1354,-317.918 1382.98,-290.558 1335.14,-255.315 1365,-228.918 1452.58,-151.5 1511.16,-225.473 1628,-228.918 1678.14,-230.396 1732.62,-233.166 1782.26,-236.143"/>
<polygon fill="blue" stroke="blue" points="1782.25,-239.649 1792.45,-236.76 1782.68,-232.661 1782.25,-239.649"/>
<text text-anchor="middle" x="1496.5" y="-231.918" font-family="Times,serif" font-size="10.00">uomoprofile:has_nickname</text>
</g>
<!-- https://www.twitch.tv/demyhanna/following&#45;&gt;https://www.twitch.tv/demyhanna -->
<g id="edge33" class="edge"><title>https://www.twitch.tv/demyhanna/following&#45;&gt;https://www.twitch.tv/demyhanna</title>
<path fill="none" stroke="blue" d="M1102.55,-753.075C1241.76,-745.815 1448.32,-733.893 1628,-718.918 1706.17,-712.403 1794.79,-702.889 1859.24,-695.581"/>
<polygon fill="blue" stroke="blue" points="1859.83,-699.036 1869.37,-694.427 1859.04,-692.081 1859.83,-699.036"/>
<text text-anchor="middle" x="1496.5" y="-739.918" font-family="Times,serif" font-size="10.00">uomoprofile:is_container_of</text>
</g>
<!-- https://static&#45;cdn.jtvnw.net/jtv_user_pictures/c01a9d9d&#45;a00b&#45;4fe5&#45;ae7c&#45;0f640abdb218&#45;profile_image&#45;70x70.jpeg&#45;&gt;https://www.twitch.tv/demyhanna -->
<g id="edge36" class="edge"><title>https://static&#45;cdn.jtvnw.net/jtv_user_pictures/c01a9d9d&#45;a00b&#45;4fe5&#45;ae7c&#45;0f640abdb218&#45;profile_image&#45;70x70.jpeg&#45;&gt;https://www.twitch.tv/demyhanna</title>
<path fill="none" stroke="blue" d="M1354.01,-703.031C1444.3,-701.372 1539.38,-699.343 1628,-696.918 1689.72,-695.228 1758.08,-692.765 1815.87,-690.509"/>
<polygon fill="blue" stroke="blue" points="1816.31,-693.995 1826.16,-690.105 1816.03,-687 1816.31,-693.995"/>
<text text-anchor="middle" x="1496.5" y="-705.918" font-family="Times,serif" font-size="10.00">uomoprofile:is_main_media_of</text>
</g>
<!-- https://www.twitch.tv/demyhanna/panels&#45;&gt;https://www.twitch.tv/demyhanna -->
<g id="edge30" class="edge"><title>https://www.twitch.tv/demyhanna/panels&#45;&gt;https://www.twitch.tv/demyhanna</title>
<path fill="none" stroke="blue" d="M1091.67,-661.087C1287.86,-666.534 1628.42,-675.989 1816.18,-681.202"/>
<polygon fill="blue" stroke="blue" points="1816.29,-684.707 1826.39,-681.486 1816.49,-677.709 1816.29,-684.707"/>
<text text-anchor="middle" x="1496.5" y="-678.918" font-family="Times,serif" font-size="10.00">uomoprofile:is_container_of</text>
</g>
<!-- https://www.twitch.tv/demyhanna/followers&#45;&gt;https://www.twitch.tv/demyhanna -->
<g id="edge35" class="edge"><title>https://www.twitch.tv/demyhanna/followers&#45;&gt;https://www.twitch.tv/demyhanna</title>
<path fill="none" stroke="blue" d="M1102.67,-614.433C1178.89,-619.098 1271.15,-624.981 1354,-630.918 1475.86,-639.649 1506.32,-641.987 1628,-652.918 1701.96,-659.561 1785.39,-667.875 1848.79,-674.363"/>
<polygon fill="blue" stroke="blue" points="1848.48,-677.85 1858.79,-675.388 1849.2,-670.887 1848.48,-677.85"/>
<text text-anchor="middle" x="1496.5" y="-655.918" font-family="Times,serif" font-size="10.00">uomoprofile:is_container_of</text>
</g>
<!-- https://www.twitch.tv/demyhanna/numberoffollowing -->
<g id="node24" class="node"><title>https://www.twitch.tv/demyhanna/numberoffollowing</title>
<g id="a_node24"><a xlink:href="https://www.twitch.tv/demyhanna/numberoffollowing" xlink:title="uomoprofile:Number_of_following:\nhttps://www.twitch.tv/demyhanna/numberoffollowing">
<polygon fill="none" stroke="black" points="1132.5,-463.918 748.5,-463.918 748.5,-433.918 1132.5,-433.918 1132.5,-463.918"/>
<text text-anchor="middle" x="940.5" y="-451.918" font-family="Times,serif" font-size="10.00" fill="blue">uomoprofile:Number_of_following:</text>
<text text-anchor="middle" x="940.5" y="-440.918" font-family="Times,serif" font-size="10.00" fill="blue">https://www.twitch.tv/demyhanna/numberoffollowing</text>
</a>
</g>
</g>
<!-- https://www.twitch.tv/demyhanna/numberoffollowing&#45;&gt;https://www.twitch.tv/demyhanna -->
<g id="edge26" class="edge"><title>https://www.twitch.tv/demyhanna/numberoffollowing&#45;&gt;https://www.twitch.tv/demyhanna</title>
<path fill="none" stroke="blue" d="M1132.62,-444.693C1323.22,-442.457 1592.65,-445.436 1628,-478.918 1646.16,-496.115 1623.13,-571.591 1639,-590.918 1681.9,-643.154 1752.79,-667.083 1816.06,-677.761"/>
<polygon fill="blue" stroke="blue" points="1815.72,-681.251 1826.14,-679.363 1816.81,-674.337 1815.72,-681.251"/>
<text text-anchor="middle" x="1496.5" y="-481.918" font-family="Times,serif" font-size="10.00">uomoprofile:is_a_stat_of</text>
</g>
<!-- &quot;92&quot; -->
<g id="node25" class="node"><title>&quot;92&quot;</title>
<text text-anchor="middle" x="1951" y="-416.418" font-family="Times,serif" font-size="10.00">&quot;92&quot;^^http://www.w3.org/2001/XMLSchema#nonNegativeInteger</text>
</g>
<!-- https://www.twitch.tv/demyhanna/numberoffollowing&#45;&gt;&quot;92&quot; -->
<g id="edge27" class="edge"><title>https://www.twitch.tv/demyhanna/numberoffollowing&#45;&gt;&quot;92&quot;</title>
<path fill="none" stroke="blue" d="M1132.72,-448.218C1202.9,-444.992 1282.62,-437.824 1354,-422.918 1359.09,-421.854 1359.88,-419.82 1365,-418.918 1480.54,-398.562 1610.93,-396.577 1719.24,-400.528"/>
<polygon fill="blue" stroke="blue" points="1719.19,-404.029 1729.31,-400.915 1719.45,-397.034 1719.19,-404.029"/>
<text text-anchor="middle" x="1496.5" y="-421.918" font-family="Times,serif" font-size="10.00">uomoprofile:value</text>
</g>
<!-- https://www.twitch.tv/demyhanna/numberoffollower -->
<g id="node26" class="node"><title>https://www.twitch.tv/demyhanna/numberoffollower</title>
<g id="a_node26"><a xlink:href="https://www.twitch.tv/demyhanna/numberoffollower" xlink:title="uomoprofile:Number_of_followers:\nhttps://www.twitch.tv/demyhanna/numberoffollower">
<polygon fill="none" stroke="black" points="1129,-411.918 752,-411.918 752,-381.918 1129,-381.918 1129,-411.918"/>
<text text-anchor="middle" x="940.5" y="-399.918" font-family="Times,serif" font-size="10.00" fill="blue">uomoprofile:Number_of_followers:</text>
<text text-anchor="middle" x="940.5" y="-388.918" font-family="Times,serif" font-size="10.00" fill="blue">https://www.twitch.tv/demyhanna/numberoffollower</text>
</a>
</g>
</g>
<!-- https://www.twitch.tv/demyhanna/numberoffollower&#45;&gt;https://www.twitch.tv/demyhanna -->
<g id="edge28" class="edge"><title>https://www.twitch.tv/demyhanna/numberoffollower&#45;&gt;https://www.twitch.tv/demyhanna</title>
<path fill="none" stroke="blue" d="M1129.29,-386.653C1326.3,-376.852 1610.04,-365.882 1628,-382.918 1644.79,-398.844 1624.72,-572.706 1639,-590.918 1680.96,-644.423 1752.37,-668.382 1816.18,-678.755"/>
<polygon fill="blue" stroke="blue" points="1815.94,-682.259 1826.35,-680.306 1816.99,-675.339 1815.94,-682.259"/>
<text text-anchor="middle" x="1496.5" y="-385.918" font-family="Times,serif" font-size="10.00">uomoprofile:is_a_stat_of</text>
</g>
<!-- &quot;134&quot; -->
<g id="node27" class="node"><title>&quot;134&quot;</title>
<text text-anchor="middle" x="1951" y="-340.418" font-family="Times,serif" font-size="10.00">&quot;134&quot;^^http://www.w3.org/2001/XMLSchema#nonNegativeInteger</text>
</g>
<!-- https://www.twitch.tv/demyhanna/numberoffollower&#45;&gt;&quot;134&quot; -->
<g id="edge29" class="edge"><title>https://www.twitch.tv/demyhanna/numberoffollower&#45;&gt;&quot;134&quot;</title>
<path fill="none" stroke="blue" d="M1129.01,-404.205C1220.34,-404.022 1318.08,-397.091 1354,-370.918 1364.81,-363.044 1353.95,-350.447 1365,-342.918 1394.23,-322.998 1564.86,-324.757 1714.35,-330.499"/>
<polygon fill="blue" stroke="blue" points="1714.49,-334.007 1724.62,-330.901 1714.77,-327.013 1714.49,-334.007"/>
<text text-anchor="middle" x="1496.5" y="-345.918" font-family="Times,serif" font-size="10.00">uomoprofile:value</text>
</g>
<!-- https://www.twitch.tv/demyhanna/nickname&#45;&gt;https://www.twitch.tv/demyhanna/user -->
<g id="edge39" class="edge"><title>https://www.twitch.tv/demyhanna/nickname&#45;&gt;https://www.twitch.tv/demyhanna/user</title>
<path fill="none" stroke="blue" d="M1792.26,-243.218C1630.19,-239.932 1397.13,-240.102 1365,-266.918 1347.2,-281.774 1371.56,-302.77 1354,-317.918 1315.81,-350.868 1195.19,-355.773 1094.17,-353.498"/>
<polygon fill="blue" stroke="blue" points="1094.24,-349.998 1084.15,-353.247 1094.06,-356.996 1094.24,-349.998"/>
<text text-anchor="middle" x="1496.5" y="-269.918" font-family="Times,serif" font-size="10.00">uomoprofile:is_nickname_of</text>
</g>
<!-- &quot;demyhanna&quot; -->
<g id="node30" class="node"><title>&quot;demyhanna&quot;</title>
<text text-anchor="middle" x="2575" y="-245.418" font-family="Times,serif" font-size="10.00">&quot;demyhanna&quot;^^http://www.w3.org/2000/01/rdf&#45;schema#Literal</text>
</g>
<!-- https://www.twitch.tv/demyhanna/nickname&#45;&gt;&quot;demyhanna&quot; -->
<g id="edge40" class="edge"><title>https://www.twitch.tv/demyhanna/nickname&#45;&gt;&quot;demyhanna&quot;</title>
<path fill="none" stroke="blue" d="M2109.76,-247.918C2180.29,-247.918 2264.83,-247.918 2342.33,-247.918"/>
<polygon fill="blue" stroke="blue" points="2342.72,-251.418 2352.72,-247.918 2342.72,-244.418 2342.72,-251.418"/>
<text text-anchor="middle" x="2308" y="-250.918" font-family="Times,serif" font-size="10.00">foaf:nick</text>
</g>
</g>
</svg>
